<?xml version="1.0" encoding="utf-8"?>
<!-- Generator: Adobe Illustrator 19.0.0, SVG Export Plug-In . SVG Version: 6.00 Build 0)  -->
<svg version="1.1" id="Layer_1" xmlns="http://www.w3.org/2000/svg" xmlns:xlink="http://www.w3.org/1999/xlink" x="0px" y="0px"
	 viewBox="0 0 800 800" style="enable-background:new 0 0 800 800;" xml:space="preserve">
<style type="text/css">
	.st0{fill:#006475;}
	.st1{fill:#0090A8;}
	.st2{fill:#FFA600;}
	.st3{fill:#FDFF91;}
	.st4{fill:#FFFFFF;}
	.st5{fill:#D02400;}
</style>
<g>
	<path id="XMLID_231_" class="st0" d="M785.6,392.1c-4.1-2.8-8.9-5.9-14-9.1c-5.3-3.2-10.9-6.4-16.6-9.5
		c-11.1-6.2-22.8-11.6-31.4-15.4c-4.3-1.9-7.9-3.3-10.4-4.4c-2.6-1-4-1.5-4-1.5s4.8-3.8,12-10c7.3-6.2,16.4-14.8,25.4-24.1
		c2.2-2.4,4.5-4.7,6.7-7.1c2.1-2.4,4.2-4.7,6.2-7c4-4.6,7.7-9.1,10.8-12.9c3.2-3.9,5.7-7.2,7.4-9.5c1.7-2.3,2.7-3.7,2.7-3.7
		s-6.4-2.1-15.9-4.9c-9.4-2.8-22.4-5.8-34.9-8.2c-12.7-2.4-25.4-3.9-34.6-4.8c-9.5-0.8-15.7-1.1-15.7-1.1s3.5-5.1,8.4-13.3
		c4.7-8,11-19.2,16.6-30.8c5.4-11.5,10.8-23.8,14-33c3.4-9.3,5.5-15.7,5.5-15.7s-6.6-0.1-16.6,0.3c-10,0.4-22.8,1.2-35.7,3
		c-6.4,0.8-12.7,1.8-18.5,2.8c-5.9,1.1-11.3,2.2-15.9,3.3c-4.6,1-8.4,2-11,2.6c-2.6,0.7-4.1,1.1-4.1,1.1s1.7-5.9,3.8-15.1
		c1.1-4.6,2.3-10.1,3.4-15.9c1.1-5.8,2.1-12.1,3-18.5c0.4-3.2,0.8-6.5,1.2-9.6c0.3-3.2,0.6-6.3,0.9-9.3c0.5-6.1,0.9-11.8,1.1-16.8
		c0.3-5,0.4-9.1,0.4-12c0-2.9,0-4.6,0-4.6s-6.4,2-15.7,5.4c-9.2,3.3-21.5,8.5-33,13.8c-11.7,5.6-22.8,11.6-30.9,16.4
		c-8.2,4.9-13.3,8.3-13.3,8.3s-0.1-1.6-0.2-4.3c-0.2-2.7-0.3-6.7-0.8-11.4c-0.9-9.2-2.3-22-4.6-34.7c-2.3-12.5-5.3-25.6-8-34.9
		c-2.7-9.5-4.8-15.9-4.8-15.9s-5.4,3.8-13.3,10c-7.8,6.2-17.8,14.4-27.2,23.4c-4.7,4.4-9.2,8.9-13.3,13.2c-4.1,4.3-7.9,8.5-11,12
		c-6.2,7.1-10,11.9-10,11.9s-0.5-1.4-1.5-3.9c-1-2.5-2.4-6-4.2-10.3c-1.8-4.3-4-9.3-6.5-14.7c-2.5-5.3-5.4-10.8-8.4-16.5
		c-3-5.6-6.2-11.3-9.3-16.4c-3.1-5.1-6.1-9.9-8.8-14c-5.4-8.2-9.2-13.6-9.2-13.6l-0.8-1.1c0,0-4,5.5-9.5,13.7
		c-2.8,4.1-5.9,8.9-9.1,14.1c-3.2,5.3-6.4,10.9-9.5,16.6c-6.2,11.1-11.6,22.8-15.4,31.4c-1.9,4.3-3.3,7.9-4.4,10.4
		c-1,2.6-1.5,4-1.5,4s-3.8-4.8-10-12c-6.2-7.3-14.8-16.4-24.1-25.4c-2.4-2.2-4.7-4.5-7.1-6.7c-2.4-2.1-4.7-4.2-7-6.2
		c-4.6-4-9-7.7-12.9-10.8c-3.9-3.2-7.2-5.7-9.5-7.4c-2.3-1.7-3.7-2.7-3.7-2.7s-2.1,6.4-4.9,15.9c-2.8,9.4-5.8,22.4-8.2,34.9
		c-2.4,12.7-3.9,25.4-4.8,34.6c-0.8,9.5-1.1,15.7-1.1,15.7s-5.1-3.5-13.3-8.4c-8-4.7-19.1-11-30.8-16.6c-11.5-5.4-23.8-10.8-33-14
		c-9.2-3.4-15.7-5.5-15.7-5.5s-0.1,6.6,0.3,16.6c0.4,10,1.2,22.8,3,35.7c0.8,6.4,1.8,12.7,2.8,18.5c1.1,5.9,2.2,11.4,3.3,15.9
		c1,4.6,2,8.4,2.6,11c0.7,2.6,1.1,4.1,1.1,4.1s-5.9-1.7-15.1-3.8c-4.6-1.1-10.1-2.3-15.9-3.4c-5.8-1.1-12.1-2.1-18.5-3
		c-3.2-0.4-6.5-0.8-9.6-1.2c-3.2-0.3-6.3-0.6-9.3-0.9c-6.1-0.5-11.8-0.9-16.8-1.1c-5-0.3-9.1-0.4-12-0.4c-2.9,0-4.6,0-4.6,0
		s2,6.4,5.4,15.7c3.3,9.2,8.5,21.5,13.8,33.1c5.6,11.7,11.6,22.8,16.4,30.9c4.9,8.2,8.3,13.3,8.3,13.3s-1.6,0.1-4.3,0.2
		c-2.7,0.2-6.7,0.3-11.4,0.8c-9.2,0.9-22,2.3-34.6,4.6c-12.5,2.3-25.6,5.3-34.9,8c-9.5,2.7-15.9,4.8-15.9,4.8s3.8,5.4,10,13.3
		c6.2,7.8,14.4,17.8,23.4,27.2c4.4,4.7,8.9,9.2,13.2,13.3c4.3,4.1,8.5,7.9,12,11c7.1,6.2,11.9,10,11.9,10s-1.4,0.5-3.9,1.5
		c-2.5,1-6,2.4-10.3,4.2c-4.3,1.8-9.3,4-14.7,6.5c-5.3,2.5-10.8,5.4-16.5,8.4c-5.6,3-11.2,6.2-16.4,9.3c-5.1,3.1-9.9,6.1-13.9,8.8
		c-8.2,5.4-13.6,9.2-13.6,9.2L0,398.8c0,0,5.5,4,13.7,9.5c4.1,2.8,8.9,5.9,14,9.1c5.3,3.2,10.9,6.4,16.6,9.5
		c11.1,6.2,22.8,11.6,31.4,15.4c4.3,1.9,7.9,3.3,10.4,4.4c2.6,1,4,1.5,4,1.5s-4.8,3.8-12,10c-7.3,6.2-16.4,14.8-25.4,24.1
		c-2.2,2.4-4.5,4.7-6.7,7.1c-2.1,2.4-4.2,4.7-6.2,7c-4,4.6-7.7,9.1-10.8,12.9c-3.2,3.9-5.7,7.2-7.4,9.5c-1.7,2.3-2.7,3.7-2.7,3.7
		s6.4,2.1,15.9,4.9c9.4,2.8,22.4,5.8,34.9,8.2c12.7,2.4,25.4,3.9,34.6,4.8c9.5,0.8,15.7,1.1,15.7,1.1s-3.5,5.1-8.4,13.3
		c-4.7,8-11,19.2-16.6,30.8c-5.4,11.5-10.8,23.8-14,33c-3.4,9.2-5.5,15.7-5.5,15.7s6.6,0.1,16.6-0.3c10-0.4,22.8-1.2,35.7-3
		c6.4-0.8,12.7-1.8,18.5-2.8c5.9-1.1,11.3-2.2,15.9-3.3c4.6-1,8.4-2,11-2.6c2.6-0.7,4.1-1.1,4.1-1.1s-1.7,5.9-3.8,15.1
		c-1.1,4.6-2.3,10.1-3.4,15.9c-1.1,5.8-2.1,12.1-3,18.5c-0.4,3.2-0.8,6.5-1.2,9.6c-0.3,3.2-0.6,6.3-0.9,9.3
		c-0.5,6.1-0.9,11.8-1.1,16.8c-0.3,5-0.4,9.1-0.4,12c0,2.9,0,4.6,0,4.6s6.4-2,15.7-5.4c9.2-3.3,21.5-8.5,33-13.8
		c11.7-5.6,22.8-11.6,30.9-16.4c8.2-4.9,13.3-8.3,13.3-8.3s0.1,1.6,0.2,4.3c0.2,2.7,0.3,6.7,0.8,11.4c0.9,9.2,2.3,22,4.6,34.7
		c2.3,12.5,5.3,25.6,8,34.9c2.7,9.5,4.8,15.9,4.8,15.9s5.4-3.8,13.3-10c7.8-6.2,17.8-14.4,27.2-23.4c4.7-4.4,9.2-8.9,13.3-13.2
		c4.1-4.3,7.9-8.5,11-12c6.2-7.1,10-11.9,10-11.9s0.5,1.4,1.5,3.9c1,2.5,2.4,6,4.2,10.3c1.8,4.3,4,9.3,6.5,14.7
		c2.5,5.3,5.4,10.8,8.4,16.5c3,5.6,6.2,11.3,9.3,16.4c3.1,5.1,6.1,9.9,8.8,14c5.4,8.2,9.2,13.6,9.2,13.6l0.8,1.1c0,0,4-5.5,9.5-13.7
		c2.8-4.1,5.9-8.9,9.1-14.1c3.2-5.3,6.4-10.9,9.5-16.6c6.2-11.1,11.6-22.8,15.4-31.4c1.9-4.3,3.3-7.9,4.4-10.4c1-2.6,1.5-4,1.5-4
		s3.8,4.8,10,12c6.2,7.3,14.8,16.4,24.1,25.4c2.4,2.2,4.7,4.5,7.1,6.7c2.4,2.1,4.7,4.2,7,6.2c4.6,4,9,7.7,12.9,10.8
		c3.9,3.2,7.2,5.7,9.5,7.4c2.3,1.7,3.7,2.7,3.7,2.7s2.1-6.4,4.9-15.9c2.8-9.4,5.8-22.4,8.2-34.9c2.4-12.7,3.9-25.4,4.8-34.6
		c0.8-9.5,1.1-15.7,1.1-15.7s5.1,3.5,13.3,8.4c8,4.7,19.1,11,30.8,16.6c11.5,5.4,23.8,10.8,33,14c9.2,3.4,15.7,5.5,15.7,5.5
		s0.1-6.6-0.3-16.6c-0.4-10-1.2-22.8-3-35.7c-0.8-6.4-1.8-12.7-2.8-18.5c-1.1-5.9-2.2-11.4-3.3-15.9c-1-4.6-2-8.4-2.6-11
		c-0.7-2.6-1.1-4.1-1.1-4.1s5.9,1.7,15.1,3.8c4.6,1.1,10.1,2.3,15.9,3.4c5.8,1.1,12.1,2.1,18.5,3c3.2,0.4,6.5,0.8,9.6,1.2
		c3.2,0.3,6.3,0.6,9.3,0.9c6.1,0.5,11.8,0.9,16.8,1.1c5,0.3,9.1,0.4,12,0.4c2.9,0,4.6,0,4.6,0s-2-6.4-5.4-15.7
		c-3.3-9.2-8.5-21.5-13.8-33.1c-5.6-11.7-11.6-22.8-16.4-30.9c-4.9-8.2-8.3-13.3-8.3-13.3s1.6-0.1,4.3-0.2c2.7-0.2,6.7-0.3,11.4-0.8
		c9.2-0.9,22-2.3,34.6-4.6c12.5-2.3,25.6-5.3,34.9-8c9.5-2.7,15.9-4.8,15.9-4.8s-3.8-5.4-10-13.3c-6.2-7.8-14.4-17.8-23.4-27.2
		c-4.4-4.7-8.9-9.2-13.2-13.3c-4.3-4.1-8.5-7.9-12-11c-7.1-6.2-11.9-10-11.9-10s1.4-0.5,3.9-1.5c2.5-1,6-2.4,10.3-4.2
		c4.3-1.8,9.3-4,14.7-6.5c5.3-2.5,10.8-5.4,16.5-8.4c5.6-3,11.2-6.2,16.4-9.3c5.1-3.1,9.9-6.1,13.9-8.8c8.2-5.4,13.6-9.2,13.6-9.2
		l1.1-0.8C799.3,401.6,793.9,397.6,785.6,392.1z"/>
	<path id="XMLID_230_" class="st1" d="M365.8,82.5c3.1-7.3,7.7-16.3,12.7-25.7c5-9.4,10.6-18.3,14.9-25.2c4.4-6.8,7.5-11.3,7.5-11.3
		l0.8,1.1c0,0,3,4.5,7.3,11.2c4.2,6.8,9.6,15.5,14.5,24.9c4.9,9.3,9.3,18.3,12.3,25.4c3,7.1,4.9,11.7,4.9,11.7s-2.4-0.3-6.1-0.8
		c-3.7-0.5-8.6-0.7-13.5-1.2c-4.9-0.5-9.9-0.4-13.5-0.6c-3.7-0.1-6.2-0.2-6.2-0.2s-2.5,0.1-6.4,0.1c-3.8,0.1-8.9,0-14,0.5
		c-5.1,0.4-10.2,0.6-13.9,1.1c-3.8,0.5-6.3,0.8-6.3,0.8S362.7,89.6,365.8,82.5z"/>
	<path id="XMLID_229_" class="st1" d="M269.4,108.5c0.8-7.7,2.1-18.2,4.1-28.4c1.9-10.3,4.3-20.9,6.4-28.6c2.1-7.8,3.7-13,3.7-13
		s1.1,0.8,2.9,2.3c1.9,1.5,4.5,3.5,7.6,6.1c6.3,5.2,14.3,12.2,21.8,19.5c7.6,7.4,14.8,15,19.9,20.7c2.6,2.8,4.7,5.4,6.1,7.1
		c1.4,1.7,2.3,2.7,2.3,2.7s-5,0.7-12.2,2.5c-3.7,0.8-8,1.7-12.4,3c-4.5,1.3-9.4,2.4-14.1,4.1c-9.5,3-18.8,6.7-25.8,9.5
		c-6.9,3.1-11.4,5.1-11.4,5.1S268.6,116.2,269.4,108.5z"/>
	<path id="XMLID_228_" class="st1" d="M178.1,105.6c-0.3-4.1-0.4-7.5-0.4-9.8c-0.1-2.4-0.1-3.7-0.1-3.7s5.2,1.8,12.7,4.8
		c7.4,2.8,17.3,7.2,26.8,11.8c4.7,2.3,9.3,4.6,13.7,6.9c4.3,2.4,8.3,4.6,11.6,6.6c6.7,3.9,10.9,6.6,10.9,6.6s-4.4,2.5-10.9,6.2
		c-6.4,3.9-14.9,9.2-23,15.1c-8.1,5.9-15.9,12.1-21.6,17.1c-2.9,2.4-5.2,4.5-6.8,6c-1.6,1.5-2.5,2.4-2.5,2.4s-1.3-4.9-2.9-12.6
		c-1.6-7.6-3.4-17.7-4.8-28.3C179.4,124.3,178.6,113.8,178.1,105.6z"/>
	<path id="XMLID_227_" class="st1" d="M109.5,215.4c-4.5-9.5-8.8-19.5-11.6-26.9c-2.9-7.5-4.6-12.7-4.6-12.7s1.3,0,3.7,0.1
		c2.4,0.1,5.7,0.2,9.7,0.5c8.1,0.6,18.7,1.5,29.1,2.9c10.5,1.5,20.8,3.4,28.2,5.1c7.6,1.7,12.6,3,12.6,3s-0.9,0.9-2.4,2.5
		c-1.6,1.5-3.6,3.9-6.1,6.8c-2.5,2.8-5.4,6.1-8.3,9.8c-2.9,3.7-6.2,7.5-9,11.7c-6,8-11.4,16.5-15.3,22.9c-3.8,6.5-6.3,10.8-6.3,10.8
		s-2.7-4.3-6.5-11C119,234.2,113.9,224.9,109.5,215.4z"/>
	<path id="XMLID_226_" class="st1" d="M87.1,334.1c-5.7-5.2-13.2-12.3-20.5-20c-7.3-7.6-14.1-15.7-19.3-22c-2.6-3.1-4.7-5.8-6.1-7.7
		c-1.4-1.9-2.2-2.9-2.2-2.9s5.3-1.6,13-3.6c3.9-1,8.4-2.1,13.3-3.2c4.9-1.1,10.2-2.1,15.3-3c5.2-0.9,10.3-1.7,15.1-2.4
		c4.9-0.6,9.4-1.1,13.3-1.5c7.7-0.7,12.8-1,12.8-1s-2.1,4.5-5.2,11.4c-1.4,3.5-3,7.5-4.8,11.9c-1.8,4.3-3.2,9.1-4.9,13.8
		c-3.1,9.5-5.8,19.2-7.4,26.5c-0.9,3.6-1.6,6.7-1.9,8.9c-0.4,2.2-0.6,3.4-0.6,3.4S93,339.3,87.1,334.1z"/>
	<path id="XMLID_225_" class="st1" d="M82.1,434c-7.3-3.1-16.3-7.7-25.7-12.7c-9.4-5-18.3-10.6-25.1-14.9
		c-6.8-4.4-11.3-7.5-11.3-7.5l1.1-0.8c0,0,4.5-3,11.2-7.3c6.8-4.2,15.5-9.6,24.9-14.5c9.3-4.9,18.3-9.3,25.4-12.3
		c7.1-3,11.7-4.9,11.7-4.9s-0.3,2.4-0.8,6.1c-0.5,3.7-0.7,8.6-1.2,13.5c-0.5,4.9-0.4,9.9-0.6,13.5c-0.1,3.7-0.2,6.2-0.2,6.2
		s0.1,2.5,0.1,6.4c0.1,3.8,0,8.9,0.5,14c0.4,5.1,0.6,10.2,1.1,14c0.5,3.8,0.8,6.3,0.8,6.3S89.3,437.2,82.1,434z"/>
	<path id="XMLID_224_" class="st1" d="M108.1,530.5c-7.7-0.8-18.2-2.1-28.4-4.1c-10.3-1.9-20.9-4.3-28.6-6.4c-7.8-2.1-13-3.7-13-3.7
		s0.8-1.1,2.3-2.9c1.5-1.9,3.5-4.5,6.1-7.6c5.2-6.3,12.2-14.3,19.5-21.8c7.4-7.6,15-14.8,20.7-19.9c2.8-2.6,5.4-4.7,7.1-6.1
		c1.7-1.4,2.7-2.3,2.7-2.3s0.7,5,2.5,12.2c0.8,3.7,1.7,8,3,12.4c1.3,4.5,2.4,9.4,4.1,14.1c3,9.5,6.7,18.8,9.5,25.8
		c3,6.9,5.1,11.4,5.1,11.4S115.8,531.3,108.1,530.5z"/>
	<path id="XMLID_223_" class="st1" d="M162.6,614.3c-7.6,1.6-17.7,3.4-28.3,4.8c-10.5,1.4-21,2.2-29.1,2.7c-4.1,0.3-7.5,0.4-9.8,0.4
		c-2.4,0.1-3.7,0.1-3.7,0.1s1.8-5.2,4.8-12.7c2.8-7.4,7.1-17.3,11.8-26.8c2.3-4.8,4.6-9.3,6.9-13.7c2.4-4.3,4.6-8.3,6.6-11.6
		c3.9-6.7,6.6-11,6.6-11s2.5,4.4,6.2,10.9c3.9,6.4,9.2,14.9,15.1,23c5.9,8.1,12.1,15.9,17.1,21.6c2.4,2.9,4.5,5.2,6,6.8
		c1.5,1.6,2.4,2.5,2.4,2.5S170.3,612.6,162.6,614.3z"/>
	<path id="XMLID_222_" class="st1" d="M240.4,677.1c-6.7,3.8-16,9-25.4,13.3c-9.5,4.5-19.4,8.8-26.9,11.6
		c-7.5,2.9-12.7,4.6-12.7,4.6s0-1.3,0.1-3.7c0.1-2.4,0.2-5.7,0.5-9.7c0.6-8.1,1.5-18.7,2.9-29.1c1.5-10.5,3.4-20.8,5.1-28.3
		c1.7-7.6,3-12.6,3-12.6s0.9,0.9,2.5,2.4c1.5,1.6,3.9,3.6,6.8,6.1c2.8,2.5,6.1,5.4,9.8,8.3c3.7,2.9,7.5,6.2,11.6,9
		c8,6,16.5,11.4,22.9,15.3c6.5,3.8,10.8,6.3,10.8,6.3S247.1,673.2,240.4,677.1z"/>
	<path id="XMLID_221_" class="st1" d="M333.6,712.8c-5.1,5.7-12.3,13.2-20,20.5c-7.6,7.3-15.7,14.1-22,19.3
		c-3.1,2.6-5.8,4.7-7.7,6.1c-1.9,1.4-2.9,2.2-2.9,2.2s-1.6-5.3-3.6-13.1c-1-3.9-2.1-8.4-3.2-13.3c-1.1-4.9-2.1-10.2-3-15.3
		c-0.9-5.2-1.7-10.3-2.4-15.1c-0.6-4.9-1.1-9.4-1.5-13.3c-0.7-7.7-1-12.8-1-12.8s4.5,2.1,11.4,5.2c3.5,1.4,7.5,3,11.9,4.8
		c4.3,1.8,9.1,3.2,13.8,4.9c9.5,3.1,19.1,5.8,26.5,7.4c3.6,0.9,6.7,1.6,8.8,1.9c2.2,0.4,3.4,0.6,3.4,0.6S338.8,707,333.6,712.8z"/>
	<path id="XMLID_220_" class="st1" d="M433.5,717.8c-3.1,7.3-7.7,16.3-12.7,25.7c-5,9.4-10.6,18.3-14.9,25.2
		c-4.4,6.8-7.5,11.3-7.5,11.3l-0.8-1.1c0,0-3-4.5-7.3-11.2c-4.2-6.8-9.6-15.5-14.5-24.9c-4.9-9.3-9.3-18.3-12.3-25.4
		c-3-7.1-4.9-11.7-4.9-11.7s2.4,0.3,6.1,0.8c3.7,0.5,8.6,0.7,13.5,1.2c4.9,0.5,9.9,0.4,13.5,0.6c3.7,0.1,6.2,0.2,6.2,0.2
		s2.5-0.1,6.4-0.1c3.8-0.1,8.9,0,14-0.5c5.1-0.4,10.2-0.6,13.9-1.1c3.8-0.5,6.3-0.8,6.3-0.8S436.7,710.7,433.5,717.8z"/>
	<path id="XMLID_219_" class="st1" d="M529.9,691.9c-0.8,7.7-2.1,18.2-4.1,28.4c-1.9,10.3-4.3,20.9-6.4,28.6c-2.1,7.8-3.7,13-3.7,13
		s-1.1-0.8-2.9-2.3c-1.9-1.5-4.5-3.5-7.6-6.1c-6.3-5.2-14.3-12.2-21.8-19.5c-7.6-7.4-14.8-15-19.9-20.7c-2.6-2.8-4.7-5.4-6.1-7.1
		c-1.4-1.7-2.3-2.7-2.3-2.7s5-0.7,12.2-2.5c3.7-0.8,8-1.7,12.4-3c4.5-1.3,9.4-2.4,14.1-4.1c9.5-3,18.8-6.7,25.8-9.5
		c6.9-3.1,11.4-5.1,11.4-5.1S530.7,684.2,529.9,691.9z"/>
	<path id="XMLID_218_" class="st1" d="M621.2,694.7c0.3,4.1,0.4,7.5,0.4,9.8c0.1,2.4,0.1,3.7,0.1,3.7s-5.2-1.8-12.7-4.8
		c-7.4-2.8-17.3-7.2-26.8-11.8c-4.7-2.3-9.3-4.6-13.7-6.9c-4.3-2.4-8.3-4.6-11.6-6.6c-6.7-3.9-10.9-6.6-10.9-6.6s4.4-2.5,10.9-6.2
		c6.4-3.9,14.9-9.2,23-15.1c8.1-5.9,15.9-12.1,21.6-17.1c2.9-2.4,5.2-4.5,6.8-6c1.6-1.5,2.5-2.4,2.5-2.4s1.3,4.9,2.9,12.6
		c1.6,7.6,3.4,17.7,4.8,28.3C619.9,676.1,620.7,686.6,621.2,694.7z"/>
	<path id="XMLID_217_" class="st1" d="M689.8,584.9c4.5,9.5,8.8,19.5,11.6,26.9c2.9,7.5,4.6,12.7,4.6,12.7s-1.3,0-3.7-0.1
		c-2.4-0.1-5.7-0.2-9.7-0.5c-8.1-0.6-18.7-1.5-29.1-2.9c-10.5-1.5-20.8-3.4-28.2-5.1c-7.6-1.7-12.6-3-12.6-3s0.9-0.9,2.4-2.5
		c1.6-1.5,3.6-3.9,6.1-6.8c2.5-2.8,5.4-6.1,8.3-9.8c2.9-3.7,6.2-7.5,9-11.7c6-8,11.4-16.5,15.3-22.9c3.8-6.5,6.3-10.8,6.3-10.8
		s2.7,4.3,6.5,11C680.3,566.2,685.4,575.5,689.8,584.9z"/>
	<path id="XMLID_216_" class="st1" d="M712.2,466.2c5.7,5.2,13.2,12.3,20.5,20c7.3,7.6,14.1,15.7,19.3,22c2.6,3.1,4.7,5.8,6.1,7.7
		c1.4,1.9,2.2,2.9,2.2,2.9s-5.3,1.6-13,3.6c-3.9,1-8.4,2.1-13.3,3.2c-4.9,1.1-10.2,2.1-15.3,3c-5.2,0.9-10.3,1.7-15.1,2.4
		c-4.9,0.6-9.4,1.1-13.3,1.5c-7.7,0.7-12.8,1-12.8,1s2.1-4.5,5.2-11.4c1.4-3.5,3-7.5,4.8-11.9c1.8-4.3,3.2-9.1,4.9-13.8
		c3.1-9.5,5.8-19.2,7.4-26.5c0.9-3.6,1.6-6.7,1.9-8.9c0.4-2.2,0.6-3.4,0.6-3.4S706.3,461,712.2,466.2z"/>
	<path id="XMLID_215_" class="st2" d="M410.7,716.6c-6.4,0.1-12.8,0.3-12.8,0.3s-6.1-0.2-12.1-0.4c-3,0-6.1-0.2-8.3-0.5
		c-2.3-0.2-3.8-0.3-3.8-0.3s1.3,2.7,3.3,6.9c2,4.2,4.9,9.6,7.9,14.9c6,10.7,12.8,21.5,12.8,21.5l0.7,1.1c0,0,7.1-11,13.4-21.9
		c3.1-5.4,6.1-11.1,8.2-15.3c2.1-4.2,3.5-7,3.5-7s-1.6,0.1-4,0.3C417.1,716.3,413.9,716.6,410.7,716.6z"/>
	<path id="XMLID_214_" class="st2" d="M694.6,515.2c-1.7,4.3-2.9,7.2-2.9,7.2s12.3-1.5,24.9-4c12.3-2.4,24.9-5.8,24.9-5.8
		s-2-2.5-5-6.2c-3.1-3.7-7.4-8.6-11.6-13.2c-8.4-9.4-17.6-17.9-17.6-17.9s-0.2,0.8-0.5,2.1c-0.3,1.3-0.7,3.2-1.4,5.5
		c-1.4,4.4-2.9,10.5-4.9,16.4C698.3,504.9,696.4,510.9,694.6,515.2z"/>
	<path id="XMLID_213_" class="st2" d="M664.8,573.1c-1.3,1.9-2.7,4.3-4.4,6.7c-1.7,2.4-3.5,4.9-5.3,7.4c-0.9,1.3-1.8,2.5-2.7,3.8
		c-1,1.2-1.9,2.4-2.8,3.5c-1.8,2.3-3.5,4.4-5,6.2c-1.4,1.9-2.7,3.3-3.6,4.3c-0.9,1-1.4,1.6-1.4,1.6s3.1,0.6,7.7,1.4
		c4.7,0.8,10.8,1.7,17.1,2.4c6.3,0.8,12.7,1.4,17.5,1.8c4.8,0.3,8,0.5,8,0.5s-1.2-3-2.9-7.5c-1.8-4.5-4.1-10.3-6.8-16.1
		c-5.3-11.7-11.2-22.5-11.2-22.5S667.3,569.2,664.8,573.1z"/>
	<path id="XMLID_212_" class="st2" d="M608,666.5c-1.3-12.5-3.7-24.9-3.7-24.9s-0.6,0.5-1.6,1.4c-1.1,0.9-2.5,2.2-4.3,3.6
		c-3.7,2.8-8.5,6.8-13.6,10.4c-5.1,3.6-10.1,7.2-14.1,9.6c-3.9,2.5-6.6,4.2-6.6,4.2s10.8,5.9,22.5,11.4c11.4,5.3,23.5,9.9,23.5,9.9
		s-0.2-3.2-0.4-8C609.3,679.2,608.7,672.8,608,666.5z"/>
	<path id="XMLID_211_" class="st2" d="M496.4,701.7c-1.5,0.5-2.9,1-4.4,1.5c-1.5,0.4-2.9,0.8-4.3,1.2c-2.8,0.8-5.4,1.5-7.7,2.1
		c-2.2,0.7-4.1,1.1-5.5,1.4c-1.3,0.3-2.1,0.5-2.1,0.5s2.2,2.3,5.4,5.7c3.3,3.4,7.7,7.7,12.4,12c4.6,4.3,9.5,8.6,13.1,11.7
		c3.7,3,6.2,5.1,6.2,5.1s0.8-3.1,2-7.8c1.2-4.7,2.7-10.8,3.9-17.1c2.5-12.6,4.2-24.8,4.2-24.8s-2.9,1.1-7.2,2.8
		C508.2,697.8,502.3,699.7,496.4,701.7z"/>
	<path id="XMLID_210_" class="st2" d="M317.1,705.9c-4.4-1.4-10.5-2.9-16.4-4.9c-5.9-2.1-11.8-3.9-16.1-5.8
		c-4.3-1.7-7.2-2.9-7.2-2.9s1.5,12.3,4,24.9c2.4,12.3,5.8,24.9,5.8,24.9s2.5-2,6.2-5c3.7-3.1,8.6-7.4,13.2-11.6
		c9.4-8.4,17.9-17.6,17.9-17.6s-0.8-0.2-2.1-0.5C321.3,706.9,319.4,706.6,317.1,705.9z"/>
	<path id="XMLID_209_" class="st2" d="M220.2,661c-2.4-1.7-4.9-3.5-7.4-5.3c-1.3-0.9-2.5-1.8-3.8-2.7c-1.2-1-2.4-1.9-3.5-2.8
		c-2.3-1.8-4.4-3.5-6.2-5c-1.9-1.4-3.3-2.7-4.3-3.6c-1-0.9-1.6-1.4-1.6-1.4s-0.6,3.1-1.4,7.7c-0.8,4.7-1.7,10.8-2.4,17.1
		c-0.8,6.3-1.4,12.7-1.8,17.5c-0.3,4.8-0.5,8-0.5,8s3-1.2,7.5-2.9c4.5-1.8,10.3-4.1,16.1-6.8c11.7-5.3,22.5-11.2,22.5-11.2
		s-2.6-1.7-6.5-4.2C224.9,664.1,222.6,662.7,220.2,661z"/>
	<path id="XMLID_208_" class="st2" d="M153.3,599c-2.8-3.7-6.8-8.5-10.4-13.6c-3.6-5.1-7.2-10.1-9.6-14.1c-2.5-3.9-4.2-6.6-4.2-6.6
		s-5.9,10.8-11.4,22.5c-5.3,11.4-9.9,23.6-9.9,23.6s3.2-0.2,8-0.4c4.9-0.4,11.3-0.9,17.5-1.6c12.5-1.3,24.9-3.7,24.9-3.7
		s-0.5-0.6-1.4-1.6C156.1,602.2,154.7,600.8,153.3,599z"/>
	<path id="XMLID_207_" class="st2" d="M98.3,497c-0.5-1.5-1-2.9-1.5-4.4c-0.4-1.5-0.8-2.9-1.2-4.3c-0.8-2.8-1.5-5.4-2.1-7.7
		c-0.7-2.2-1.1-4.1-1.4-5.5c-0.3-1.3-0.5-2.1-0.5-2.1s-2.3,2.2-5.7,5.4c-3.4,3.3-7.7,7.7-12,12.4c-4.3,4.6-8.6,9.5-11.7,13.2
		c-3,3.7-5.1,6.2-5.1,6.2s3.1,0.8,7.8,2c4.7,1.2,10.8,2.7,17,3.9c12.6,2.5,24.8,4.2,24.8,4.2s-1.1-2.9-2.8-7.2
		C102.2,508.8,100.2,502.9,98.3,497z"/>
	<path id="XMLID_206_" class="st2" d="M84,378c0.2-2.3,0.3-3.8,0.3-3.8s-2.7,1.3-6.9,3.3c-4.2,2-9.6,4.9-14.9,7.9
		c-10.7,6-21.4,12.8-21.4,12.8l-1.1,0.7c0,0,11,7.1,21.9,13.4c5.4,3.1,11.1,6.1,15.3,8.2c4.2,2.1,7,3.5,7,3.5s-0.1-1.6-0.3-4
		c-0.2-2.4-0.5-5.6-0.4-8.8c-0.1-6.4-0.3-12.8-0.3-12.8s0.2-6.1,0.4-12.1C83.6,383.2,83.8,380.2,84,378z"/>
	<path id="XMLID_205_" class="st2" d="M388.6,83.8c6.4-0.1,12.8-0.3,12.8-0.3s6.1,0.2,12.1,0.4c3,0,6.1,0.2,8.3,0.5
		c2.3,0.2,3.8,0.3,3.8,0.3s-1.3-2.7-3.3-6.9c-2-4.2-4.9-9.6-7.9-14.9c-6-10.7-12.8-21.5-12.8-21.5l-0.7-1.1c0,0-7.1,11-13.4,21.9
		c-3.1,5.4-6.1,11.1-8.2,15.3c-2.1,4.2-3.5,7-3.5,7s1.6-0.1,4-0.3C382.3,84.1,385.4,83.8,388.6,83.8z"/>
	<path id="XMLID_204_" class="st2" d="M104.7,285.2c1.7-4.3,2.9-7.2,2.9-7.2s-12.3,1.5-24.9,4c-12.3,2.5-24.9,5.8-24.9,5.8
		s2,2.5,5,6.2c3.1,3.7,7.4,8.6,11.6,13.2c8.4,9.4,17.6,17.9,17.6,17.9s0.2-0.8,0.5-2.1c0.3-1.3,0.7-3.2,1.4-5.5
		c1.4-4.4,2.9-10.5,4.9-16.4C101,295.4,102.9,289.5,104.7,285.2z"/>
	<path id="XMLID_203_" class="st2" d="M134.6,227.3c1.3-1.9,2.7-4.3,4.4-6.7c1.7-2.4,3.5-4.9,5.3-7.4c0.9-1.3,1.8-2.5,2.7-3.8
		c1-1.2,1.9-2.4,2.8-3.5c1.8-2.3,3.5-4.4,5-6.2c1.4-1.9,2.7-3.3,3.6-4.3c0.9-1,1.4-1.6,1.4-1.6s-3.1-0.6-7.7-1.4
		c-4.7-0.8-10.8-1.7-17.1-2.4c-6.3-0.8-12.7-1.4-17.5-1.8c-4.8-0.3-8-0.5-8-0.5s1.2,3,2.9,7.5c1.8,4.5,4.1,10.3,6.8,16.1
		c5.3,11.7,11.2,22.5,11.2,22.5S132,231.2,134.6,227.3z"/>
	<path id="XMLID_202_" class="st2" d="M191.3,133.8c1.3,12.5,3.7,24.9,3.7,24.9s0.6-0.5,1.6-1.4c1.1-0.9,2.5-2.2,4.3-3.6
		c3.7-2.8,8.5-6.8,13.6-10.4c5.1-3.6,10.1-7.2,14.1-9.6c3.9-2.5,6.6-4.2,6.6-4.2s-10.8-5.9-22.5-11.4c-11.4-5.3-23.5-9.9-23.5-9.9
		s0.2,3.2,0.4,8C190,121.1,190.6,127.6,191.3,133.8z"/>
	<path id="XMLID_201_" class="st2" d="M302.9,98.7c1.5-0.5,2.9-1,4.4-1.5c1.5-0.4,2.9-0.8,4.3-1.2c2.8-0.8,5.4-1.5,7.7-2.1
		c2.2-0.7,4.1-1.1,5.5-1.4c1.3-0.3,2.1-0.5,2.1-0.5s-2.2-2.3-5.4-5.7c-3.3-3.4-7.7-7.7-12.4-12c-4.6-4.3-9.5-8.6-13.1-11.7
		c-3.7-3-6.2-5.1-6.2-5.1s-0.8,3.1-2,7.8c-1.2,4.7-2.7,10.8-3.9,17.1c-2.5,12.6-4.2,24.8-4.2,24.8s2.9-1.1,7.2-2.8
		C291.1,102.5,297,100.6,302.9,98.7z"/>
	<path id="XMLID_200_" class="st1" d="M691.2,269.8c7.7,0.8,18.2,2.1,28.4,4.1c10.3,1.9,20.9,4.3,28.6,6.4c7.8,2.1,13,3.7,13,3.7
		s-0.8,1.1-2.3,2.9c-1.5,1.9-3.5,4.5-6.1,7.6c-5.2,6.3-12.2,14.3-19.5,21.8c-7.4,7.6-15,14.8-20.7,19.9c-2.8,2.6-5.4,4.7-7.1,6.1
		c-1.7,1.4-2.7,2.3-2.7,2.3s-0.7-5-2.5-12.2c-0.8-3.7-1.7-8-3-12.4c-1.3-4.5-2.4-9.4-4.1-14.1c-3-9.5-6.7-18.8-9.5-25.8
		c-3-6.9-5.1-11.4-5.1-11.4S683.5,269,691.2,269.8z"/>
	<path id="XMLID_199_" class="st1" d="M636.7,186.1c7.6-1.6,17.7-3.4,28.3-4.8c10.5-1.4,21-2.2,29.1-2.7c4.1-0.3,7.5-0.4,9.8-0.4
		c2.4-0.1,3.7-0.1,3.7-0.1s-1.8,5.2-4.8,12.7c-2.8,7.4-7.1,17.3-11.8,26.8c-2.3,4.8-4.6,9.4-6.9,13.7c-2.4,4.3-4.6,8.3-6.6,11.6
		c-3.9,6.7-6.6,11-6.6,11s-2.5-4.4-6.2-10.9c-3.9-6.4-9.2-14.9-15.1-23c-5.9-8.1-12.1-15.9-17.1-21.6c-2.4-2.9-4.5-5.2-6-6.8
		c-1.5-1.6-2.4-2.5-2.4-2.5S629.1,187.7,636.7,186.1z"/>
	<path id="XMLID_198_" class="st1" d="M558.9,123.3c6.7-3.8,16-9,25.4-13.3c9.5-4.5,19.4-8.8,26.9-11.6c7.5-2.9,12.7-4.6,12.7-4.6
		s0,1.3-0.1,3.7c-0.1,2.4-0.2,5.7-0.5,9.7c-0.6,8.1-1.5,18.7-2.9,29.1c-1.5,10.5-3.4,20.8-5.1,28.3c-1.7,7.6-3,12.6-3,12.6
		s-0.9-0.9-2.5-2.4c-1.5-1.6-3.9-3.6-6.8-6.1c-2.8-2.5-6.1-5.4-9.8-8.3c-3.7-2.9-7.5-6.2-11.6-9c-8-6-16.5-11.4-22.9-15.3
		c-6.5-3.8-10.8-6.3-10.8-6.3S552.2,127.1,558.9,123.3z"/>
	<path id="XMLID_197_" class="st1" d="M465.7,87.5c5.1-5.7,12.3-13.2,20-20.5c7.6-7.3,15.7-14.1,22-19.3c3.1-2.6,5.8-4.7,7.7-6.1
		c1.9-1.4,2.9-2.2,2.9-2.2s1.6,5.3,3.6,13.1c1,3.9,2.1,8.4,3.2,13.3c1.1,4.9,2.1,10.2,3,15.3c0.9,5.2,1.7,10.3,2.4,15.1
		c0.6,4.9,1.1,9.4,1.5,13.3c0.7,7.7,1,12.8,1,12.8s-4.5-2.1-11.4-5.2c-3.5-1.4-7.5-3-11.9-4.8c-4.3-1.8-9.1-3.2-13.8-4.9
		c-9.5-3.1-19.1-5.8-26.5-7.4c-3.6-0.9-6.7-1.6-8.8-1.9c-2.2-0.4-3.4-0.6-3.4-0.6S460.5,93.4,465.7,87.5z"/>
	<path id="XMLID_196_" class="st3" d="M617.7,603.6c-1.5,1.5-2.3,2.4-2.3,2.4s-2.8,2.9-5.6,5.9c-2.9,2.8-5.9,5.6-5.9,5.6
		s-0.9,0.8-2.4,2.3c-1.5,1.5-3.8,3.5-6.6,5.8c-5.4,4.8-13,10.9-20.9,16.6c-7.8,5.7-16,10.9-22.2,14.7c-6.3,3.6-10.5,6-10.5,6
		s-0.9,0.5-2.2,1.2c-1.4,0.7-3.2,1.6-5,2.5c-1.8,0.9-3.6,1.8-5,2.5c-1.3,0.7-2.3,1.1-2.3,1.1s-4.4,2-11,4.9
		c-6.7,2.7-15.7,6.3-24.9,9.2c-4.5,1.7-9.3,2.7-13.6,4c-4.3,1.3-8.5,2.1-12,2.9c-7.1,1.7-11.8,2.4-11.8,2.4s-4,0.7-8,1.4
		c-2,0.4-4,0.6-5.5,0.8c-1.5,0.2-2.5,0.3-2.5,0.3s-2.4,0.3-6.1,0.7c-3.7,0.6-8.6,0.7-13.5,1.1c-4.9,0.5-9.9,0.3-13.5,0.5
		c-3.7,0.1-6.2,0.1-6.2,0.1s-2.4-0.1-6-0.2c-3.6-0.2-8.4-0.1-13.1-0.6c-4.7-0.4-9.5-0.7-13.1-1.1c-3.5-0.5-5.9-0.8-5.9-0.8
		s-4-0.5-8-1.1c-4-0.7-8-1.5-8-1.5s-1.2-0.2-3.3-0.6c-2.1-0.3-5-1-8.6-1.9c-7.1-1.5-16.4-4.1-25.6-7.1c-4.5-1.7-9.2-3-13.4-4.8
		c-4.2-1.7-8.1-3.3-11.5-4.6c-6.6-3-11-5-11-5s-0.9-0.4-2.3-1.1c-1.3-0.7-3.1-1.6-4.9-2.6c-3.6-1.9-7.2-3.7-7.2-3.7
		s-4.2-2.4-10.5-6.1c-6.2-3.8-14.4-9-22.1-14.8c-4-2.7-7.7-5.9-11.3-8.7c-3.6-2.7-6.7-5.6-9.5-8c-2.7-2.4-5.1-4.3-6.5-5.9
		c-1.5-1.5-2.4-2.3-2.4-2.3s-2.9-2.8-5.9-5.6c-2.8-3-5.6-5.9-5.6-5.9s-0.8-0.9-2.3-2.4c-1.5-1.5-3.5-3.8-5.8-6.6
		c-4.8-5.4-10.9-13-16.6-20.9c-5.7-7.8-10.9-16-14.6-22.2c-3.6-6.3-6-10.5-6-10.5s-0.5-0.9-1.2-2.2c-0.7-1.4-1.6-3.2-2.5-5
		c-0.9-1.8-1.8-3.6-2.5-5c-0.7-1.3-1.1-2.3-1.1-2.3s-2-4.4-4.9-11.1c-2.7-6.7-6.3-15.7-9.2-24.9c-1.7-4.5-2.7-9.3-4-13.6
		c-1.3-4.3-2.1-8.5-2.9-12c-1.7-7.1-2.4-11.8-2.4-11.8s-0.7-4-1.4-8c-0.4-2-0.6-4-0.8-5.5c-0.2-1.5-0.3-2.5-0.3-2.5
		s-0.3-2.4-0.7-6.1c-0.6-3.7-0.7-8.6-1.1-13.5c-0.5-4.9-0.3-9.9-0.5-13.6c-0.1-3.7-0.1-6.2-0.1-6.2s0.1-2.4,0.2-6
		c0.2-3.6,0.1-8.4,0.6-13.1c0.4-4.7,0.7-9.5,1.1-13.1c0.5-3.5,0.8-5.9,0.8-5.9s0.5-4,1.1-8c0.7-4,1.5-8,1.5-8s0.2-1.2,0.6-3.3
		c0.3-2.1,1-5,1.9-8.6c1.5-7.1,4.1-16.4,7.1-25.6c1.7-4.5,3-9.2,4.7-13.4c1.7-4.2,3.3-8.1,4.6-11.5c3-6.6,5-11,5-11s0.4-0.9,1.1-2.3
		c0.7-1.3,1.6-3.1,2.6-4.9c1.9-3.6,3.7-7.2,3.7-7.2s2.4-4.2,6.1-10.5c3.8-6.2,9-14.4,14.8-22.1c2.7-4,5.9-7.7,8.7-11.3
		c2.7-3.6,5.6-6.7,8-9.5c2.4-2.7,4.3-5.1,5.9-6.5c1.5-1.5,2.3-2.4,2.3-2.4s2.8-2.9,5.6-5.9c2.9-2.8,5.9-5.6,5.9-5.6s0.9-0.8,2.4-2.3
		c1.5-1.5,3.8-3.5,6.6-5.8c5.4-4.8,13-10.9,20.9-16.6c7.8-5.7,16-10.9,22.2-14.7c6.3-3.6,10.5-6,10.5-6s0.9-0.5,2.2-1.2
		c1.4-0.7,3.2-1.6,5-2.5c1.8-0.9,3.6-1.8,5-2.5c1.3-0.7,2.3-1.1,2.3-1.1s4.4-2,11-4.9c6.7-2.7,15.7-6.3,24.9-9.2
		c4.5-1.7,9.3-2.7,13.6-4c4.3-1.3,8.5-2.1,12-2.9c7.1-1.7,11.8-2.4,11.8-2.4s4-0.7,8-1.4c2-0.4,4-0.6,5.5-0.8
		c1.5-0.2,2.5-0.3,2.5-0.3s2.4-0.3,6.1-0.7c3.7-0.6,8.6-0.7,13.5-1.1c4.9-0.5,9.9-0.3,13.5-0.5c3.7-0.1,6.2-0.1,6.2-0.1
		s2.4,0.1,6,0.2c3.6,0.2,8.4,0.1,13.1,0.6c4.7,0.4,9.5,0.7,13.1,1.1c3.5,0.5,5.9,0.8,5.9,0.8s4,0.5,8,1.1c4,0.7,8,1.5,8,1.5
		s1.2,0.2,3.3,0.6c2.1,0.3,5,1,8.6,1.9c7.1,1.5,16.4,4.1,25.6,7.1c4.5,1.7,9.2,3,13.4,4.7c4.2,1.7,8.1,3.3,11.5,4.6c6.6,3,11,5,11,5
		s0.9,0.4,2.3,1.1c1.3,0.7,3.1,1.6,4.9,2.6c3.6,1.9,7.2,3.7,7.2,3.7s4.2,2.4,10.5,6.1c6.2,3.8,14.4,9,22.1,14.8
		c4,2.7,7.7,5.9,11.3,8.7c3.6,2.7,6.7,5.6,9.5,8c2.7,2.4,5.1,4.3,6.5,5.9c1.5,1.5,2.4,2.3,2.4,2.3s2.9,2.8,5.9,5.6
		c2.8,3,5.6,5.9,5.6,5.9s0.8,0.9,2.3,2.4c1.5,1.5,3.5,3.8,5.8,6.6c4.8,5.4,10.9,13,16.6,20.9c5.7,7.8,10.9,16,14.6,22.2
		c3.6,6.3,6,10.5,6,10.5s0.5,0.9,1.2,2.2c0.7,1.4,1.6,3.2,2.5,5c0.9,1.8,1.8,3.6,2.5,5c0.7,1.3,1.1,2.3,1.1,2.3s2,4.4,4.9,11.1
		c2.7,6.7,6.3,15.7,9.2,24.9c1.7,4.5,2.7,9.3,4,13.6c1.3,4.3,2.1,8.5,2.9,12c1.7,7.1,2.4,11.8,2.4,11.8s0.7,4,1.4,8
		c0.4,2,0.6,4,0.8,5.5c0.2,1.5,0.3,2.5,0.3,2.5s0.3,2.4,0.7,6.1c0.6,3.7,0.7,8.6,1.1,13.5c0.5,4.9,0.3,9.9,0.5,13.6
		c0.1,3.7,0.1,6.2,0.1,6.2s-0.1,2.4-0.2,6c-0.2,3.6-0.1,8.4-0.6,13.1c-0.4,4.7-0.7,9.5-1.1,13.1c-0.5,3.5-0.8,5.9-0.8,5.9
		s-0.5,4-1.1,8c-0.7,4-1.5,8-1.5,8s-0.2,1.2-0.6,3.3c-0.3,2.1-1,5-1.9,8.6c-1.5,7.1-4.1,16.4-7.1,25.6c-1.7,4.5-3,9.2-4.7,13.4
		c-1.7,4.2-3.3,8.1-4.6,11.5c-3,6.6-5,11-5,11s-0.4,0.9-1.1,2.3c-0.7,1.3-1.6,3.1-2.6,4.9c-1.9,3.6-3.7,7.2-3.7,7.2
		s-2.4,4.2-6.1,10.5c-3.8,6.2-9,14.4-14.8,22.1c-2.7,4-5.9,7.7-8.7,11.3c-2.7,3.6-5.6,6.7-8,9.5
		C621.2,599.8,619.3,602.1,617.7,603.6z"/>
	<ellipse id="XMLID_195_" class="st4" cx="399.7" cy="400.2" rx="231.7" ry="231.8"/>
	<ellipse id="XMLID_194_" class="st0" cx="399.7" cy="400.2" rx="138.2" ry="138.3"/>
	<ellipse id="XMLID_193_" class="st2" cx="399.7" cy="400.2" rx="130.9" ry="131"/>
	<path id="XMLID_192_" class="st1" d="M767,409.6c-6.8,4.2-15.5,9.6-24.9,14.5c-9.3,4.9-18.3,9.3-25.4,12.3
		c-7.1,3-11.7,4.9-11.7,4.9s0.3-2.4,0.8-6.1c0.5-3.7,0.7-8.6,1.2-13.5c0.5-4.9,0.4-9.9,0.6-13.5c0.1-3.7,0.2-6.2,0.2-6.2
		s-0.1-2.5-0.1-6.4c-0.1-3.8,0-8.9-0.5-14c-0.4-5.1-0.6-10.2-1.1-14c-0.5-3.8-0.8-6.3-0.8-6.3s4.7,1.9,11.9,5
		c7.3,3.1,16.3,7.7,25.7,12.7c9.4,5,18.3,10.6,25.1,14.9c6.8,4.4,11.3,7.5,11.3,7.5l-1.1,0.8C778.2,402.3,773.7,405.3,767,409.6z"/>
	<path id="XMLID_191_" class="st2" d="M722.2,379.9c-4.2-2.1-7-3.5-7-3.5s0.1,1.6,0.3,4c0.2,2.4,0.5,5.6,0.4,8.8
		c0.1,6.4,0.3,12.8,0.3,12.8s-0.2,6.1-0.4,12.1c0,3-0.2,6.1-0.5,8.3c-0.2,2.3-0.3,3.8-0.3,3.8s2.7-1.3,6.9-3.3
		c4.2-2,9.6-4.9,14.9-7.9c10.7-6,21.4-12.8,21.4-12.8l1.1-0.7c0,0-11-7.1-21.9-13.4C732.1,384.9,726.4,382,722.2,379.9z"/>
	<path id="XMLID_190_" class="st2" d="M482.2,94.4c4.4,1.4,10.5,2.9,16.4,4.9c5.9,2.1,11.8,3.9,16.1,5.8c4.3,1.7,7.2,2.9,7.2,2.9
		s-1.5-12.3-4-24.9c-2.4-12.3-5.8-24.9-5.8-24.9s-2.5,2-6.2,5c-3.7,3.1-8.6,7.4-13.2,11.6c-9.4,8.4-17.9,17.6-17.9,17.6
		s0.8,0.2,2.1,0.5C478,93.4,480,93.7,482.2,94.4z"/>
	<path id="XMLID_189_" class="st2" d="M579.1,139.3c2.4,1.7,4.9,3.5,7.4,5.3c1.3,0.9,2.5,1.8,3.8,2.7c1.2,1,2.4,1.9,3.5,2.8
		c2.3,1.8,4.4,3.5,6.2,5c1.9,1.4,3.3,2.7,4.3,3.6c1,0.9,1.6,1.4,1.6,1.4s0.6-3.1,1.4-7.7c0.8-4.7,1.7-10.8,2.4-17.1
		c0.8-6.3,1.4-12.7,1.8-17.5c0.3-4.8,0.5-8,0.5-8s-3,1.2-7.5,2.9c-4.5,1.8-10.3,4.1-16.1,6.8c-11.7,5.3-22.5,11.2-22.5,11.2
		s2.6,1.7,6.5,4.2C574.4,136.2,576.8,137.6,579.1,139.3z"/>
	<path id="XMLID_188_" class="st2" d="M646,201.4c2.8,3.7,6.8,8.5,10.4,13.6c3.6,5.1,7.2,10.1,9.6,14.1c2.5,3.9,4.2,6.6,4.2,6.6
		s5.9-10.8,11.4-22.5c5.3-11.4,9.9-23.6,9.9-23.6s-3.2,0.2-8,0.4c-4.9,0.4-11.3,0.9-17.5,1.6c-12.5,1.3-24.9,3.7-24.9,3.7
		s0.5,0.6,1.4,1.6C643.2,198.1,644.6,199.5,646,201.4z"/>
	<path id="XMLID_187_" class="st2" d="M701,303.4c0.5,1.5,1,2.9,1.5,4.4c0.4,1.5,0.8,2.9,1.2,4.3c0.8,2.8,1.5,5.4,2.1,7.7
		c0.7,2.2,1.1,4.1,1.4,5.5c0.3,1.3,0.5,2.1,0.5,2.1s2.3-2.2,5.7-5.4c3.4-3.3,7.7-7.7,12-12.4c4.3-4.6,8.6-9.5,11.7-13.2
		c3-3.7,5.1-6.2,5.1-6.2s-3.1-0.8-7.8-2c-4.7-1.2-10.8-2.7-17-3.9c-12.6-2.5-24.8-4.2-24.8-4.2s1.1,2.9,2.8,7.2
		C697.2,291.6,699.1,297.5,701,303.4z"/>
	<path id="XMLID_186_" class="st3" d="M525,394c-3.7-1.7-8-3.5-12.5-5.1c-4.7-1.6-9.8-3.1-14.8-4.3c-9.9-2.4-20.1-3.4-27.6-3.6
		c-3.7-0.1-6.8,0-8.9,0c-2.2,0.1-3.4,0.2-3.4,0.2s4.1-2.5,10.1-7c6.1-4.6,13.4-11.3,20.2-19.1c3.5-4,6.6-8.1,9.4-12.1
		c2.8-4,5.2-8,7.3-11.6c2.1-3.6,3.5-6.5,4.5-8.7c1-2.2,1.6-3.4,1.6-3.4s-5.5,0.6-13.4,2.1c-7.9,1.6-18.3,4.6-27.6,8.5
		c-9.7,4.1-18.3,9.1-24.5,13.3c-6.2,4.3-9.9,7.5-9.9,7.5s0.5-1.2,1.2-3.2c0.8-2,1.9-5,2.9-8.6c1-3.5,2.1-7.8,3-12.5
		c0.9-4.7,1.7-9.8,2.1-14.9c0.9-10.2,0.6-21-0.5-28.9c-0.9-8-2.1-13.5-2.1-13.5s-1,0.9-2.7,2.5c-1.7,1.7-4.2,4.1-6.9,7.1
		c-2.7,3-5.8,6.5-8.7,10.4c-3,3.8-6,8.4-8.6,12.7c-2.7,4.4-5,8.9-7,13.1c-2,4.4-3.6,8.5-4.9,12c-2.5,7.1-3.6,11.7-3.6,11.7
		s-1.1-4.7-3.6-11.7c-1.2-3.5-2.9-7.6-4.9-12c-2-4.3-4.4-8.7-7-13.1c-2.7-4.4-5.6-8.9-8.6-12.7c-3-3.9-6-7.4-8.7-10.4
		c-2.7-3-5.2-5.4-6.9-7.1c-1.7-1.6-2.7-2.5-2.7-2.5s-1.2,5.5-2.1,13.5c-1,7.9-1.3,18.7-0.5,28.9c0.4,5,1.1,10.2,2.1,14.9
		c0.9,4.7,2,8.9,3,12.5c1,3.5,2.1,6.5,2.9,8.6c0.8,2,1.2,3.2,1.2,3.2s-3.7-3.2-9.9-7.5c-6.2-4.3-14.8-9.2-24.5-13.3
		c-9.3-3.9-19.7-6.9-27.6-8.5c-7.8-1.5-13.4-2.1-13.4-2.1s0.6,1.2,1.6,3.4c1,2.1,2.5,5.1,4.5,8.7c2,3.5,4.5,7.5,7.3,11.6
		c2.8,4,5.9,8.1,9.4,12.1c6.8,7.9,14.1,14.6,20.2,19.1c6,4.6,10.1,7,10.1,7s-1.2-0.1-3.4-0.2c-2.1-0.1-5.2-0.1-8.9,0
		c-7.4,0.2-17.7,1.2-27.6,3.6c-5,1.2-10.1,2.7-14.8,4.3c-4.6,1.6-8.9,3.4-12.5,5.1c-7.3,3.3-12.2,6.1-12.2,6.1s4.9,2.8,12.2,6.1
		c3.7,1.7,8,3.5,12.5,5.1c4.7,1.6,9.8,3.1,14.8,4.3c9.9,2.4,20.1,3.4,27.6,3.6c3.7,0.1,6.8,0,8.9,0c2.2-0.1,3.4-0.2,3.4-0.2
		s-4.1,2.5-10.1,7c-6.1,4.6-13.4,11.3-20.2,19.1c-3.5,4-6.6,8.1-9.4,12.1c-2.8,4-5.2,8-7.3,11.6c-2.1,3.6-3.5,6.5-4.5,8.7
		c-1,2.2-1.6,3.4-1.6,3.4s5.5-0.6,13.4-2.1c7.9-1.6,18.3-4.6,27.6-8.5c9.7-4.1,18.3-9.1,24.5-13.3c6.2-4.3,9.9-7.5,9.9-7.5
		s-0.5,1.2-1.2,3.2c-0.8,2-1.9,5-2.9,8.6c-1,3.5-2.1,7.8-3,12.5c-0.9,4.7-1.7,9.8-2.1,14.9c-0.9,10.2-0.6,21,0.5,28.9
		c0.9,8,2.1,13.5,2.1,13.5s1-0.9,2.7-2.5c1.7-1.7,4.2-4.1,6.9-7.1c2.7-3,5.8-6.5,8.7-10.4c3-3.8,6-8.4,8.6-12.7
		c2.7-4.4,5-8.9,7-13.1c2-4.4,3.6-8.5,4.9-12c2.5-7.1,3.6-11.7,3.6-11.7s1.1,4.7,3.6,11.7c1.2,3.5,2.9,7.6,4.9,12
		c2,4.3,4.4,8.7,7,13.1c2.7,4.4,5.6,8.9,8.6,12.7c3,3.9,6,7.4,8.7,10.4c2.7,3,5.2,5.4,6.9,7.1c1.7,1.6,2.7,2.5,2.7,2.5
		s1.2-5.5,2.1-13.5c1-7.9,1.3-18.7,0.5-28.9c-0.4-5-1.1-10.2-2.1-14.9c-0.9-4.7-2-8.9-3-12.5c-1-3.5-2.1-6.5-2.9-8.6
		c-0.8-2-1.2-3.2-1.2-3.2s3.7,3.2,9.9,7.5c6.2,4.3,14.8,9.2,24.5,13.3c9.3,3.9,19.7,6.9,27.6,8.5c7.8,1.5,13.4,2.1,13.4,2.1
		s-0.6-1.2-1.6-3.4c-1-2.1-2.5-5.1-4.5-8.7c-2-3.5-4.5-7.5-7.3-11.6c-2.8-4-5.9-8.1-9.4-12.1c-6.8-7.9-14.1-14.6-20.2-19.1
		c-6-4.6-10.1-7-10.1-7s1.2,0.1,3.4,0.2c2.1,0.1,5.2,0.1,8.9,0c7.4-0.2,17.7-1.2,27.6-3.6c5-1.2,10.1-2.7,14.8-4.3
		c4.6-1.6,8.9-3.4,12.5-5.1c7.3-3.3,12.2-6.1,12.2-6.1S532.3,397.4,525,394z"/>
	<path class="st5" d="M525,394c-3.7-1.7-8-3.5-12.5-5.1c-4.7-1.6-9.8-3.1-14.8-4.3c-9.9-2.4-20.1-3.4-27.6-3.6c-3.7-0.1-6.8,0-8.9,0
		c-2.2,0.1-3.4,0.2-3.4,0.2s4.1-2.5,10.1-7c6.1-4.6,13.4-11.3,20.2-19.1c3.5-4,6.6-8.1,9.4-12.1c2.8-4,5.2-8,7.3-11.6
		c2.1-3.6,3.5-6.5,4.5-8.7c1-2.2,1.6-3.4,1.6-3.4s-5.5,0.6-13.4,2.1c-7.9,1.6-18.3,4.6-27.6,8.5c-9.7,4.1-18.3,9.1-24.5,13.3
		c-6.2,4.3-9.9,7.5-9.9,7.5s0.5-1.2,1.2-3.2c0.8-2,1.9-5,2.9-8.6c1-3.5,2.1-7.8,3-12.5c0.9-4.7,1.7-9.8,2.1-14.9
		c0.9-10.2,0.6-21-0.5-28.9c-0.9-8-2.1-13.5-2.1-13.5s-1,0.9-2.7,2.5c-1.7,1.7-4.2,4.1-6.9,7.1c-2.7,3-5.8,6.5-8.7,10.4
		c-3,3.8-6,8.4-8.6,12.7c-2.7,4.4-5,8.9-7,13.1c-2,4.4-3.6,8.5-4.9,12c-2.5,7.1-3.6,11.7-3.6,11.7s-1.1-4.7-3.6-11.7
		c-1.2-3.5-2.9-7.6-4.9-12c-2-4.3-4.4-8.7-7-13.1c-2.7-4.4-5.6-8.9-8.6-12.7c-3-3.9-6-7.4-8.7-10.4c-2.7-3-5.2-5.4-6.9-7.1
		c-1.7-1.6-2.7-2.5-2.7-2.5s-1.2,5.5-2.1,13.5c-1,7.9-1.3,18.7-0.5,28.9c0.4,5,1.1,10.2,2.1,14.9c0.9,4.7,2,8.9,3,12.5
		c1,3.5,2.1,6.5,2.9,8.6c0.8,2,1.2,3.2,1.2,3.2s-3.7-3.2-9.9-7.5c-6.2-4.3-14.8-9.2-24.5-13.3c-9.3-3.9-19.7-6.9-27.6-8.5
		c-7.8-1.5-13.4-2.1-13.4-2.1s0.6,1.2,1.6,3.4c1,2.1,2.5,5.1,4.5,8.7c2,3.5,4.5,7.5,7.3,11.6c2.8,4,5.9,8.1,9.4,12.1
		c6.8,7.9,14.1,14.6,20.2,19.1c6,4.6,10.1,7,10.1,7s-1.2-0.1-3.4-0.2c-2.1-0.1-5.2-0.1-8.9,0c-7.4,0.2-17.7,1.2-27.6,3.6
		c-5,1.2-10.1,2.7-14.8,4.3c-4.6,1.6-8.9,3.4-12.5,5.1c-7.3,3.3-12.2,6.1-12.2,6.1s4.9,2.8,12.2,6.1c3.7,1.7,8,3.5,12.5,5.1
		c4.7,1.6,9.8,3.1,14.8,4.3c9.9,2.4,20.1,3.4,27.6,3.6c3.7,0.1,6.8,0,8.9,0c2.2-0.1,3.4-0.2,3.4-0.2s-4.1,2.5-10.1,7
		c-6.1,4.6-13.4,11.3-20.2,19.1c-3.5,4-6.6,8.1-9.4,12.1c-2.8,4-5.2,8-7.3,11.6c-2.1,3.6-3.5,6.5-4.5,8.7c-1,2.2-1.6,3.4-1.6,3.4
		s5.5-0.6,13.4-2.1c7.9-1.6,18.3-4.6,27.6-8.5c9.7-4.1,18.3-9.1,24.5-13.3c6.2-4.3,9.9-7.5,9.9-7.5s-0.5,1.2-1.2,3.2
		c-0.8,2-1.9,5-2.9,8.6c-1,3.5-2.1,7.8-3,12.5c-0.9,4.7-1.7,9.8-2.1,14.9c-0.9,10.2-0.6,21,0.5,28.9c0.9,8,2.1,13.5,2.1,13.5
		s1-0.9,2.7-2.5c1.7-1.7,4.2-4.1,6.9-7.1c2.7-3,5.8-6.5,8.7-10.4c3-3.8,6-8.4,8.6-12.7c2.7-4.4,5-8.9,7-13.1c2-4.4,3.6-8.5,4.9-12
		c2.5-7.1,3.6-11.7,3.6-11.7s1.1,4.7,3.6,11.7c1.2,3.5,2.9,7.6,4.9,12c2,4.3,4.4,8.7,7,13.1c2.7,4.4,5.6,8.9,8.6,12.7
		c3,3.9,6,7.4,8.7,10.4c2.7,3,5.2,5.4,6.9,7.1c1.7,1.6,2.7,2.5,2.7,2.5s1.2-5.5,2.1-13.5c1-7.9,1.3-18.7,0.5-28.9
		c-0.4-5-1.1-10.2-2.1-14.9c-0.9-4.7-2-8.9-3-12.5c-1-3.5-2.1-6.5-2.9-8.6c-0.8-2-1.2-3.2-1.2-3.2s3.7,3.2,9.9,7.5
		c6.2,4.3,14.8,9.2,24.5,13.3c9.3,3.9,19.7,6.9,27.6,8.5c7.8,1.5,13.4,2.1,13.4,2.1s-0.6-1.2-1.6-3.4c-1-2.1-2.5-5.1-4.5-8.7
		c-2-3.5-4.5-7.5-7.3-11.6c-2.8-4-5.9-8.1-9.4-12.1c-6.8-7.9-14.1-14.6-20.2-19.1c-6-4.6-10.1-7-10.1-7s1.2,0.1,3.4,0.2
		c2.1,0.1,5.2,0.1,8.9,0c7.4-0.2,17.7-1.2,27.6-3.6c5-1.2,10.1-2.7,14.8-4.3c4.6-1.6,8.9-3.4,12.5-5.1c7.3-3.3,12.2-6.1,12.2-6.1
		S532.3,397.4,525,394z M442.9,350.4c2.6-1.7,5.8-3.7,9.3-5.7c3.6-2,7.4-4,11.3-5.6c7.8-3.4,16.6-6.3,23-7.8c6.5-1.6,11-2.3,11-2.3
		s-0.5,1-1.5,2.7c-1,1.7-2.3,4.1-4.1,7c-3.6,5.8-8.8,13-14.5,19.4c-5.9,6.6-12.2,12.3-17.1,16.2c-5.1,3.9-8.6,6.2-8.6,6.2
		c-0.1,0-0.4-1.6-1.2-3c-0.7-1.4-1.4-2.9-1.4-2.9s1.9-1.5,4.5-4c2.6-2.4,6-5.8,9.2-9.5c6.6-7.3,11.9-15.7,11.9-15.7s-2.4,0.6-6,1.8
		c-3.6,1.1-8,2.7-12.6,4.7c-9.1,3.9-17.1,8.9-17.1,8.9c0-0.1-1.2-1.1-2.4-2.2c-0.6-0.6-1.2-1.1-1.6-1.5c-0.5-0.4-0.8-0.6-0.8-0.6
		S437.7,353.8,442.9,350.4z M455.3,397.8c-0.1-1.2-0.1-2.4-0.1-2.4s5.2,0.7,10.5,2c5.3,1.2,10.6,2.9,10.6,2.9s-5.3,1.7-10.6,2.9
		c-5.3,1.2-10.5,2-10.5,2s0.1-1.2,0.1-2.4c0.1-1.2,0.2-2.4,0.2-2.4S455.4,399,455.3,397.8z M447.4,371.4c-0.1,0.1-1-2.2-2.6-4
		c-0.7-1-1.4-1.9-1.9-2.7c-0.6-0.7-1-1.1-1-1.1s1.2-0.6,3-1.6c1.8-0.9,4.3-2.1,6.7-3.1c4.9-2.1,10.1-3.9,10.1-3.9s-0.8,1.1-2,2.7
		c-1.3,1.6-2.9,3.7-4.7,5.7C451.3,367.7,447.4,371.4,447.4,371.4z M405.5,334.4c2.2-6.1,5.6-13.6,10-21.3c2.2-3.9,4.6-7.5,7-10.8
		c2.4-3.3,4.8-6.4,7-9c2.2-2.6,4.1-4.7,5.5-6.2c1.4-1.4,2.2-2.2,2.2-2.2s0.7,4.6,1.2,11.3c0.2,3.4,0.4,7.2,0.4,11.3
		c-0.1,4.2-0.3,8.6-0.7,12.9c-0.4,4.3-1.1,8.5-1.8,12.4c-0.8,4-1.7,7.6-2.6,10.7c-1.7,6.1-3.2,9.9-3.2,9.9s-1.4-0.8-2.8-1.7
		c-1.3-0.9-2.8-1.5-2.8-1.5s0.6-2.3,1.3-5.8c0.7-3.5,1.5-8.4,2-13.2c0.9-9.5,0.4-19.7,0.4-19.7s-1.6,1.8-3.8,4.9
		c-2.2,3-5,7.1-7.4,11.3c-2.5,4.2-4.6,8.4-6.2,11.7c-1.5,3.3-2.4,5.5-2.4,5.5s-1.6-0.3-3.2-0.5c-1.6-0.1-3.2-0.1-3.2-0.1
		S403.3,340.4,405.5,334.4z M423.4,327.2c0,0-0.1,5.6-0.6,10.9c-0.5,5.4-1.4,10.6-1.4,10.6s-2.3-0.7-4.5-1.6
		c-1.1-0.5-2.3-0.6-3.2-0.9c-0.9-0.2-1.4-0.4-1.4-0.4s2.3-4.8,5.1-9.5c1.4-2.3,2.9-4.7,4-6.4C422.6,328.3,423.4,327.2,423.4,327.2z
		 M363.1,332.9c-0.7-3.9-1.4-8.1-1.8-12.4c-0.4-4.3-0.7-8.7-0.7-12.9c0-4.1,0.2-7.9,0.4-11.3c0.5-6.7,1.2-11.3,1.2-11.3
		s0.8,0.8,2.2,2.2c1.4,1.5,3.3,3.6,5.5,6.2c2.2,2.6,4.6,5.7,7,9c2.4,3.3,4.8,6.9,7,10.8c4.4,7.7,7.8,15.2,10,21.3
		c2.2,6,3.2,10.1,3.2,10.1s-1.6,0.1-3.2,0.1c-1.6,0.3-3.2,0.5-3.2,0.5s-0.9-2.2-2.4-5.5c-1.5-3.4-3.7-7.6-6.2-11.7
		c-2.5-4.2-5.2-8.3-7.4-11.3c-2.2-3.1-3.8-4.9-3.8-4.9s-0.5,10.1,0.4,19.7c0.4,4.8,1.3,9.7,2,13.2c0.7,3.5,1.3,5.8,1.3,5.8
		s-1.5,0.6-2.8,1.5c-1.4,0.8-2.8,1.7-2.8,1.7s-1.5-3.8-3.2-9.9C364.9,340.5,363.9,336.9,363.1,332.9z M387,345.8
		c0,0-0.6,0.2-1.4,0.4c-0.8,0.3-2.1,0.4-3.2,0.9c-2.2,0.9-4.5,1.6-4.5,1.6s-0.9-5.2-1.4-10.6c-0.5-5.4-0.6-10.9-0.6-10.9
		s0.8,1.1,1.9,2.8c1.2,1.7,2.6,4.1,4,6.4C384.7,341,387,345.8,387,345.8z M338.9,374.3c-4.9-3.9-11.2-9.6-17.1-16.2
		c-5.7-6.4-10.8-13.6-14.5-19.4c-1.8-2.9-3.1-5.3-4.1-7c-0.9-1.7-1.5-2.7-1.5-2.7s4.6,0.7,11,2.3c6.4,1.5,15.1,4.4,23,7.8
		c3.9,1.7,7.8,3.6,11.3,5.6c3.5,2,6.7,3.9,9.3,5.7c5.2,3.4,8.5,6.2,8.5,6.2s-0.3,0.2-0.8,0.6c-0.4,0.4-1,1-1.6,1.5
		c-1.2,1.1-2.5,2.1-2.4,2.2c0,0-8-5-17-8.9c-4.6-2-9-3.6-12.6-4.7c-3.5-1.1-6-1.8-6-1.8s5.3,8.4,11.9,15.7c3.2,3.7,6.6,7.1,9.2,9.5
		c2.7,2.5,4.5,4,4.5,4s-0.7,1.4-1.4,2.9c-0.8,1.4-1.1,3-1.2,3C347.5,380.5,343.9,378.3,338.9,374.3z M357.5,363.6c0,0-0.4,0.4-1,1.1
		c-0.5,0.7-1.2,1.7-1.9,2.7c-1.6,1.8-2.6,4-2.6,4c0,0-3.9-3.7-7.5-7.8c-1.9-2.1-3.5-4.1-4.7-5.7c-1.2-1.6-2-2.7-2-2.7
		s5.2,1.7,10.1,3.9c2.5,1,4.9,2.2,6.7,3.1C356.3,363,357.5,363.6,357.5,363.6z M344,402.6c0.1,1.2,0.1,2.4,0.1,2.4s-5.2-0.7-10.5-2
		c-5.3-1.2-10.6-2.9-10.6-2.9s5.3-1.7,10.6-2.9c5.3-1.2,10.5-2,10.5-2s-0.1,1.2-0.1,2.4c-0.1,1.2-0.2,2.4-0.2,2.4
		S343.9,401.4,344,402.6z M335.4,415c-6.5-0.2-14.7-1.1-23.3-3c-8.7-1.8-16.8-4.7-23.1-7.2c-6.3-2.5-10.4-4.6-10.4-4.6
		s4.2-2.1,10.4-4.6c6.3-2.5,14.4-5.4,23.1-7.2c8.6-1.9,16.8-2.8,23.3-3c6.4-0.2,10.5,0,10.5,0s-0.4,1.5-0.8,3.1
		c-0.2,0.8-0.2,1.6-0.3,2.2c-0.1,0.6-0.1,1-0.1,1s-2.4,0.1-6,0.6c-3.6,0.4-8.5,1.2-13.1,2.3c-9.4,2.1-18.9,5.7-18.9,5.7
		s9.5,3.6,18.9,5.7c4.6,1.1,9.5,1.8,13.1,2.3c3.6,0.4,6,0.6,6,0.6s0.1,0.4,0.1,1c0.1,0.6,0.1,1.4,0.3,2.2c0.4,1.5,0.8,3.1,0.8,3.1
		S341.8,415.2,335.4,415z M356.4,450c-2.6,1.7-5.8,3.7-9.3,5.7c-3.6,2-7.4,4-11.3,5.6c-7.8,3.4-16.6,6.3-23,7.8
		c-6.5,1.6-11,2.3-11,2.3s0.5-1,1.5-2.7c1-1.7,2.3-4.1,4.1-7c3.6-5.8,8.8-13,14.5-19.4c5.9-6.6,12.2-12.3,17.1-16.2
		c5.1-3.9,8.6-6.2,8.6-6.2c0.1,0,0.4,1.6,1.2,3c0.7,1.4,1.4,2.9,1.4,2.9s-1.9,1.5-4.5,4c-2.6,2.4-6,5.8-9.2,9.5
		c-6.6,7.3-11.9,15.7-11.9,15.7s2.4-0.6,6-1.8c3.6-1.1,8-2.7,12.6-4.7c9.1-3.9,17-8.9,17-8.9c0,0.1,1.2,1.1,2.4,2.2
		c0.6,0.6,1.2,1.1,1.6,1.5c0.5,0.4,0.8,0.6,0.8,0.6S361.6,446.5,356.4,450z M351.9,428.9c0.1-0.1,1,2.2,2.6,4c0.7,1,1.4,1.9,1.9,2.7
		c0.6,0.7,1,1.1,1,1.1s-1.2,0.6-3,1.6c-1.8,0.9-4.3,2.1-6.7,3.1c-4.9,2.1-10.1,3.9-10.1,3.9s0.8-1.1,2-2.7c1.3-1.6,2.9-3.7,4.7-5.7
		C348,432.6,351.9,428.9,351.9,428.9z M393.9,465.9c-2.2,6.1-5.6,13.6-10,21.3c-2.2,3.9-4.6,7.5-7,10.8c-2.4,3.3-4.8,6.4-7,9
		c-2.2,2.6-4.1,4.7-5.5,6.2c-1.4,1.4-2.2,2.2-2.2,2.2s-0.7-4.6-1.2-11.3c-0.2-3.4-0.4-7.2-0.4-11.3c0.1-4.2,0.3-8.6,0.7-12.9
		c0.4-4.3,1.1-8.5,1.8-12.4c0.8-4,1.7-7.6,2.6-10.7c1.7-6.1,3.2-9.9,3.2-9.9s1.4,0.8,2.8,1.7c1.3,0.9,2.8,1.5,2.8,1.5
		s-0.6,2.3-1.3,5.8c-0.7,3.5-1.5,8.4-2,13.2c-0.9,9.5-0.4,19.7-0.4,19.7s1.6-1.8,3.8-4.9c2.2-3,5-7.1,7.4-11.3
		c2.5-4.2,4.6-8.4,6.2-11.7c1.5-3.3,2.4-5.5,2.4-5.5s1.6,0.3,3.2,0.5c1.6,0.1,3.2,0.1,3.2,0.1S396,459.9,393.9,465.9z M376,473.1
		c0,0,0.1-5.6,0.6-10.9c0.5-5.4,1.4-10.6,1.4-10.6s2.3,0.7,4.5,1.6c1.1,0.5,2.3,0.6,3.2,0.9c0.9,0.2,1.4,0.4,1.4,0.4
		s-2.3,4.8-5.1,9.5c-1.4,2.3-2.9,4.7-4,6.4C376.7,472,376,473.1,376,473.1z M399.7,450.2c-1.2-0.1-2.3-0.2-2.3-0.2s-1.2,0-2.3-0.1
		c-1.2,0-2.3-0.4-2.3-0.3c0,0-1.1-0.2-2.7-0.4c-0.8-0.1-1.7-0.5-2.7-0.7c-1-0.3-2.1-0.4-3.1-0.8c-2-0.9-4.2-1.4-5.6-2.3
		c-1.5-0.7-2.5-1.2-2.5-1.2c0,0.1-1-0.6-1.9-1.2c-1-0.6-2-1.2-2-1.2c-0.1,0.1-3.6-2.8-3.7-2.7c-0.1,0.2-3.4-3.1-3.4-3
		c0,0-0.2-0.2-0.6-0.5c-0.4-0.3-0.8-0.9-1.3-1.5c-0.6-0.6-1.2-1.3-1.9-2.1c-0.6-0.8-1.3-1.7-1.9-2.6l-1-1.3
		c-0.3-0.5-0.5-0.9-0.8-1.4c-0.5-0.9-1-1.7-1.5-2.4c-0.5-0.7-0.6-1.4-0.9-1.8c-0.2-0.4-0.3-0.7-0.3-0.7s-0.5-1-1-2
		c-0.4-1-0.8-2.1-0.8-2.1l-0.8-2.1c-0.1,0-0.6-2.2-0.6-2.2s-1.2-4.4-1-4.4c0,0-0.1-0.5-0.2-1.4c-0.1-0.8-0.4-1.9-0.4-3
		c0-2.2-0.3-4.5-0.3-4.5s0.2-2.2,0.3-4.5c0-1.1,0.3-2.2,0.4-3c0.1-0.8,0.2-1.4,0.2-1.4c-0.2,0,1-4.4,1-4.4c0,0,0.2-1.1,0.6-2.2
		c0.4-1.1,0.8-2.1,0.8-2.1s0.3-1.1,0.8-2.1c0.5-1,1-2,1-2s0.1-0.2,0.3-0.7c0.2-0.4,0.4-1.1,0.9-1.8c0.5-0.7,1-1.5,1.5-2.4
		c0.3-0.4,0.5-0.9,0.8-1.4l1-1.3c0.7-0.9,1.3-1.8,1.9-2.6c0.7-0.7,1.4-1.5,1.9-2.1c0.6-0.6,1-1.2,1.3-1.5c0.4-0.3,0.6-0.5,0.6-0.5
		c0.1,0.1,3.3-3.2,3.4-3c0.1,0.1,3.6-2.8,3.7-2.7c0,0,1-0.6,2-1.2c1-0.6,1.9-1.3,1.9-1.2c0,0,1-0.4,2.5-1.2c1.4-0.9,3.6-1.4,5.6-2.3
		c1-0.4,2.1-0.5,3.1-0.8c1-0.2,1.9-0.6,2.7-0.7c1.6-0.2,2.7-0.4,2.7-0.4c0,0,1.1-0.3,2.3-0.3c1.2,0,2.3-0.1,2.3-0.1s1.2-0.1,2.3-0.2
		c1.2,0.1,2.3,0.2,2.3,0.2s1.2,0,2.3,0.1c1.2,0,2.3,0.4,2.3,0.3c0,0,1.1,0.2,2.7,0.4c0.8,0.1,1.7,0.5,2.7,0.7c1,0.3,2.1,0.4,3.1,0.8
		c2,0.9,4.2,1.4,5.6,2.3c1.5,0.7,2.5,1.2,2.5,1.2c0-0.1,1,0.6,1.9,1.2c1,0.6,2,1.2,2,1.2c0.1-0.1,3.6,2.8,3.7,2.7
		c0.1-0.2,3.4,3.1,3.4,3c0,0,0.2,0.2,0.6,0.5c0.4,0.3,0.8,0.9,1.3,1.5c0.6,0.6,1.2,1.3,1.9,2.1c0.6,0.8,1.3,1.7,1.9,2.6l1,1.3
		c0.3,0.5,0.5,0.9,0.8,1.4c0.5,0.9,1,1.7,1.5,2.4c0.5,0.7,0.6,1.4,0.9,1.8c0.2,0.4,0.3,0.7,0.3,0.7s0.5,1,1,2c0.4,1,0.8,2.1,0.8,2.1
		l0.8,2.1c0.1,0,0.6,2.2,0.6,2.2s1.2,4.4,1,4.4c0,0,0.1,0.5,0.2,1.4c0.1,0.8,0.4,1.9,0.4,3c0,2.2,0.3,4.5,0.3,4.5s-0.2,2.2-0.3,4.5
		c0,1.1-0.3,2.2-0.4,3c-0.1,0.8-0.2,1.4-0.2,1.4c0.2,0-1,4.4-1,4.4c0,0-0.2,1.1-0.6,2.2c-0.4,1.1-0.8,2.1-0.8,2.1s-0.3,1.1-0.8,2.1
		c-0.5,1-1,2-1,2s-0.1,0.2-0.3,0.7c-0.2,0.4-0.4,1.1-0.9,1.8c-0.5,0.7-1,1.5-1.5,2.4c-0.3,0.4-0.5,0.9-0.8,1.4l-1,1.3
		c-0.7,0.9-1.3,1.8-1.9,2.6c-0.7,0.7-1.4,1.5-1.9,2.1c-0.6,0.6-1,1.2-1.3,1.5c-0.4,0.3-0.6,0.5-0.6,0.5c-0.1-0.1-3.3,3.2-3.4,3
		c-0.1-0.1-3.6,2.8-3.7,2.7c0,0-1,0.6-2,1.2c-1,0.6-1.9,1.3-1.9,1.2c0,0-1,0.4-2.5,1.2c-1.4,0.9-3.6,1.4-5.6,2.3
		c-1,0.4-2.1,0.5-3.1,0.8c-1,0.2-1.9,0.6-2.7,0.7c-1.6,0.2-2.7,0.4-2.7,0.4c0,0-1.1,0.3-2.3,0.3c-1.2,0-2.3,0.1-2.3,0.1
		S400.8,450.1,399.7,450.2z M454.9,436.8c1.9,2.1,3.5,4.1,4.7,5.7c1.2,1.6,2,2.7,2,2.7s-5.2-1.7-10.1-3.9c-2.5-1-4.9-2.2-6.7-3.1
		c-1.8-0.9-3-1.6-3-1.6s0.4-0.4,1-1.1c0.5-0.7,1.2-1.7,1.9-2.7c1.6-1.8,2.6-4,2.6-4C447.4,428.9,451.3,432.6,454.9,436.8z
		 M423.4,473.1c0,0-0.8-1.1-1.9-2.8c-1.2-1.7-2.6-4.1-4-6.4c-2.8-4.7-5.1-9.5-5.1-9.5s0.6-0.2,1.4-0.4c0.8-0.3,2.1-0.4,3.2-0.9
		c2.2-0.9,4.5-1.6,4.5-1.6s0.9,5.2,1.4,10.6C423.3,467.6,423.4,473.1,423.4,473.1z M436.2,467.4c0.7,3.9,1.4,8.1,1.8,12.4
		c0.4,4.3,0.7,8.7,0.7,12.9c0,4.1-0.2,7.9-0.4,11.3c-0.5,6.7-1.2,11.3-1.2,11.3s-0.8-0.8-2.2-2.2c-1.4-1.5-3.3-3.6-5.5-6.2
		c-2.2-2.6-4.6-5.7-7-9c-2.4-3.3-4.8-6.9-7-10.8c-4.4-7.7-7.8-15.2-10-21.3c-2.2-6-3.2-10.1-3.2-10.1s1.6-0.1,3.2-0.1
		c1.6-0.3,3.2-0.5,3.2-0.5s0.9,2.2,2.4,5.5c1.5,3.4,3.7,7.6,6.2,11.7c2.5,4.2,5.2,8.3,7.4,11.3c2.2,3.1,3.8,4.9,3.8,4.9
		s0.5-10.1-0.4-19.7c-0.4-4.8-1.3-9.7-2-13.2c-0.7-3.5-1.3-5.8-1.3-5.8s1.5-0.6,2.8-1.5c1.4-0.8,2.8-1.7,2.8-1.7s1.5,3.8,3.2,9.9
		C434.5,459.8,435.4,463.4,436.2,467.4z M460.5,426c4.9,3.9,11.2,9.6,17.1,16.2c5.7,6.4,10.8,13.6,14.5,19.4c1.8,2.9,3.1,5.3,4.1,7
		c0.9,1.7,1.5,2.7,1.5,2.7s-4.6-0.7-11-2.3c-6.4-1.5-15.1-4.4-23-7.8c-3.9-1.7-7.8-3.6-11.3-5.6c-3.5-2-6.7-3.9-9.3-5.7
		c-5.2-3.4-8.5-6.2-8.5-6.2s0.3-0.2,0.8-0.6c0.4-0.4,1-1,1.6-1.5c1.2-1.1,2.5-2.1,2.4-2.2c0,0,8,5,17.1,8.9c4.6,2,9,3.6,12.6,4.7
		c3.5,1.1,6,1.8,6,1.8s-5.3-8.4-11.9-15.7c-3.2-3.7-6.6-7.1-9.2-9.5c-2.7-2.5-4.5-4-4.5-4s0.7-1.4,1.4-2.9c0.8-1.4,1.1-3,1.2-3
		C451.9,419.8,455.4,422.1,460.5,426z M510.4,404.8c-6.3,2.5-14.4,5.4-23.1,7.2c-8.6,1.9-16.8,2.8-23.3,3c-6.4,0.2-10.5,0-10.5,0
		s0.4-1.5,0.8-3.1c0.2-0.8,0.2-1.6,0.3-2.2c0.1-0.6,0.1-1,0.1-1s2.4-0.1,6-0.6c3.6-0.4,8.5-1.2,13.1-2.3c9.4-2.1,18.9-5.7,18.9-5.7
		s-9.5-3.6-18.9-5.7c-4.6-1.1-9.5-1.9-13.1-2.3c-3.6-0.4-6-0.6-6-0.6s-0.1-0.4-0.1-1c-0.1-0.6-0.1-1.4-0.3-2.2
		c-0.4-1.5-0.8-3.1-0.8-3.1s4.1-0.3,10.5,0c6.5,0.2,14.7,1.1,23.3,3c8.7,1.8,16.8,4.7,23.1,7.2c6.3,2.5,10.4,4.6,10.4,4.6
		S516.7,402.3,510.4,404.8z"/>
	<path id="XMLID_163_" class="st2" d="M455.3,397.8c-0.1-1.2-0.1-2.4-0.1-2.4s5.2,0.7,10.5,2c5.3,1.2,10.6,2.9,10.6,2.9
		s-5.3,1.7-10.6,2.9c-5.3,1.2-10.5,2-10.5,2s0.1-1.2,0.1-2.4c0.1-1.2,0.2-2.4,0.2-2.4S455.4,399,455.3,397.8z"/>
	<path id="XMLID_162_" class="st2" d="M447.4,371.4c-0.1,0.1-1-2.2-2.6-4c-0.7-1-1.4-1.9-1.9-2.7c-0.6-0.7-1-1.1-1-1.1
		s1.2-0.6,3-1.6c1.8-0.9,4.3-2.1,6.7-3.1c4.9-2.1,10.1-3.9,10.1-3.9s-0.8,1.1-2,2.7c-1.3,1.6-2.9,3.7-4.7,5.7
		C451.3,367.7,447.4,371.4,447.4,371.4z"/>
	<path id="XMLID_161_" class="st2" d="M423.4,327.2c0,0-0.1,5.6-0.6,10.9c-0.5,5.4-1.4,10.6-1.4,10.6s-2.3-0.7-4.5-1.6
		c-1.1-0.5-2.3-0.6-3.2-0.9c-0.9-0.2-1.4-0.4-1.4-0.4s2.3-4.8,5.1-9.5c1.4-2.3,2.9-4.7,4-6.4C422.6,328.3,423.4,327.2,423.4,327.2z"
		/>
	<path id="XMLID_160_" class="st2" d="M387,345.8c0,0-0.6,0.2-1.4,0.4c-0.8,0.3-2.1,0.4-3.2,0.9c-2.2,0.9-4.5,1.6-4.5,1.6
		s-0.9-5.2-1.4-10.6c-0.5-5.4-0.6-10.9-0.6-10.9s0.8,1.1,1.9,2.8c1.2,1.7,2.6,4.1,4,6.4C384.7,341,387,345.8,387,345.8z"/>
	<path id="XMLID_159_" class="st2" d="M357.5,363.6c0,0-0.4,0.4-1,1.1c-0.5,0.7-1.2,1.7-1.9,2.7c-1.6,1.8-2.6,4-2.6,4
		c0,0-3.9-3.7-7.5-7.8c-1.9-2.1-3.5-4.1-4.7-5.7c-1.2-1.6-2-2.7-2-2.7s5.2,1.7,10.1,3.9c2.5,1,4.9,2.2,6.7,3.1
		C356.3,363,357.5,363.6,357.5,363.6z"/>
	<path id="XMLID_158_" class="st2" d="M344,402.6c0.1,1.2,0.1,2.4,0.1,2.4s-5.2-0.7-10.5-2c-5.3-1.2-10.6-2.9-10.6-2.9
		s5.3-1.7,10.6-2.9c5.3-1.2,10.5-2,10.5-2s-0.1,1.2-0.1,2.4c-0.1,1.2-0.2,2.4-0.2,2.4S343.9,401.4,344,402.6z"/>
	<path id="XMLID_157_" class="st2" d="M351.9,428.9c0.1-0.1,1,2.2,2.6,4c0.7,1,1.4,1.9,1.9,2.7c0.6,0.7,1,1.1,1,1.1s-1.2,0.6-3,1.6
		c-1.8,0.9-4.3,2.1-6.7,3.1c-4.9,2.1-10.1,3.9-10.1,3.9s0.8-1.1,2-2.7c1.3-1.6,2.9-3.7,4.7-5.7C348,432.6,351.9,428.9,351.9,428.9z"
		/>
	<path id="XMLID_156_" class="st2" d="M376,473.1c0,0,0.1-5.6,0.6-10.9c0.5-5.4,1.4-10.6,1.4-10.6s2.3,0.7,4.5,1.6
		c1.1,0.5,2.3,0.6,3.2,0.9c0.9,0.2,1.4,0.4,1.4,0.4s-2.3,4.8-5.1,9.5c-1.4,2.3-2.9,4.7-4,6.4C376.7,472,376,473.1,376,473.1z"/>
	<path id="XMLID_155_" class="st2" d="M454.9,436.8c1.9,2.1,3.5,4.1,4.7,5.7c1.2,1.6,2,2.7,2,2.7s-5.2-1.7-10.1-3.9
		c-2.5-1-4.9-2.2-6.7-3.1c-1.8-0.9-3-1.6-3-1.6s0.4-0.4,1-1.1c0.5-0.7,1.2-1.7,1.9-2.7c1.6-1.8,2.6-4,2.6-4
		C447.4,428.9,451.3,432.6,454.9,436.8z"/>
	<path id="XMLID_154_" class="st2" d="M423.4,473.1c0,0-0.8-1.1-1.9-2.8c-1.2-1.7-2.6-4.1-4-6.4c-2.8-4.7-5.1-9.5-5.1-9.5
		s0.6-0.2,1.4-0.4c0.8-0.3,2.1-0.4,3.2-0.9c2.2-0.9,4.5-1.6,4.5-1.6s0.9,5.2,1.4,10.6C423.3,467.6,423.4,473.1,423.4,473.1z"/>
	<ellipse id="XMLID_153_" class="st4" cx="399.7" cy="400.2" rx="52.2" ry="52.2"/>
	<path id="XMLID_152_" class="st0" d="M437.7,389.3c-2.2-2.1-5-3.2-7.5-3.8c-4.9-1.3-8.8-1.3-12.1-4.7c-3.4-3.2-3.7-6.9-5.2-11.8
		c-0.8-2.5-1.9-5.1-4.2-7.3c-2.2-2.1-5.6-3.9-10.2-3.8c-4.6,0.1-7.8,1.9-9.9,4.2c-2.1,2.2-3.2,5-3.8,7.5c-1.3,4.9-1.3,8.8-4.7,12.1
		c-1.7,1.8-3.4,2.7-5.4,3.4c-1.8,0.7-4.1,1-6.4,1.8c-2.5,0.8-5.1,1.9-7.3,4.2c-2.1,2.2-3.9,5.6-3.8,10.2c0.1,4.6,1.9,7.9,4.2,10
		c2.2,2.1,5,3.2,7.5,3.8c4.9,1.3,8.8,1.3,12.1,4.7c3.4,3.2,3.7,6.9,5.2,11.8c0.8,2.5,1.9,5.1,4.2,7.3c2.2,2.1,5.6,3.9,10.2,3.8
		c4.6-0.2,7.8-1.9,9.9-4.2c2.1-2.2,3.2-5,3.8-7.5c1.3-4.9,1.3-8.8,4.7-12.1c3.2-3.4,6.9-3.7,11.8-5.2c2.5-0.8,5.1-1.9,7.3-4.2
		c2.1-2.2,3.9-5.6,3.8-10.2C441.8,394.6,440,391.4,437.7,389.3z"/>
	<path id="XMLID_151_" class="st3" d="M425.6,409.2c-4.7,1.3-9.5,1.2-12.1,4.1c-1.4,1.4-2,3.2-2.4,5.4c-0.4,2.1-0.7,4.6-1.2,6.9
		c-1,4.5-3.2,8.9-9.4,9.1c-6.3,0-8.6-4.3-9.9-8.7c-0.6-2.4-1-4.7-1.5-6.9c-0.5-2.1-1.1-3.9-2.6-5.3c-1.5-1.4-3.2-2-5.4-2.4
		c-2.1-0.4-4.6-0.7-6.9-1.2c-4.4-1-8.9-3.2-9.1-9.4c0-6.3,4.3-8.6,8.7-9.8c2.8-0.8,5.7-1.1,8.1-1.8c1.6-0.5,3-1.1,4.1-2.3
		c1.4-1.5,2-3.2,2.4-5.4c0.4-2.1,0.7-4.6,1.2-6.9c1-4.4,3.2-8.9,9.4-9.1c6.3,0,8.6,4.3,9.8,8.7c1.3,4.7,1.2,9.5,4.1,12.1
		c1.4,1.4,3.2,2,5.4,2.4c2.1,0.4,4.6,0.7,6.9,1.2c4.4,1,8.9,3.2,9.1,9.4C434.2,405.7,430,408,425.6,409.2z"/>
	<path id="XMLID_150_" class="st5" d="M402.7,376l0-0.1c-1-6.2-6.5-6-7.2,0.2l0,0.1c1.6,3.2,2.9,6.2,3.8,8.8
		C400.1,382.4,401.3,379.3,402.7,376z"/>
	<path id="XMLID_149_" class="st5" d="M423.7,396.1l-0.1,0c-3.2,1.6-6.2,2.9-8.8,3.8c2.7,0.8,5.7,1.9,9,3.4l0.1,0
		C430.1,402.3,429.9,396.8,423.7,396.1z"/>
	<path id="XMLID_148_" class="st5" d="M396.6,424.3l0,0.1c1,6.2,6.5,6,7.2-0.2l0-0.1c-1.6-3.2-2.9-6.2-3.8-8.8
		C399.2,418,398,421,396.6,424.3z"/>
	<path id="XMLID_147_" class="st2" d="M398.1,388c-3.3,0.4-5.7,2.1-7,3.4c-0.7,0.7-1.2,1.2-1.4,1.7c-0.3,0.4-0.5,0.6-0.5,0.6
		s-0.2,0.4-0.5,1c-0.3,0.6-0.6,1.4-0.9,2.2c-0.5,1.7-0.4,3.5-0.4,3.5s0,1.1,0.4,3c0.5,1.8,1.7,4.5,4.3,6.5c2.6,2.1,6.6,3.2,10.6,2.1
		c4-1,7.6-4.4,8.7-8.7c1.2-4.2-0.2-9.1-3.2-11.9C405.4,388.5,401.3,387.6,398.1,388z"/>
	<path id="XMLID_146_" class="st5" d="M404,401.3c-0.5,1.6-1.7,2.8-3.2,3.2c-1.5,0.4-2.9,0-3.9-0.8c-1.9-1.5-1.7-3.6-1.7-3.5
		c0,0-0.1-0.7,0.1-1.2c0.1-0.6,0.5-1.2,0.5-1.2c0.1,0.1,0.7-1.7,3.3-2.1c1.2-0.1,2.7,0.2,3.8,1.3C403.9,397.9,404.4,399.9,404,401.3
		z"/>
	<path id="XMLID_145_" class="st5" d="M375.4,397.1c-6.2,1-6,6.5,0.2,7.2l0.1,0c3.2-1.6,6.2-2.9,8.8-3.8c-2.7-0.8-5.7-1.9-9-3.4
		L375.4,397.1z"/>
	<g>
		<path id="XMLID_144_" class="st5" d="M660,438.9c-7.8-5.9-15.7-11-23.1-15.1l-5.6-3c0,0-0.2,1.3-0.4,2.7c-0.3,1.3-0.5,2.7-0.5,2.7
			c-1.4,7.1-2.9,15.1-4.7,23.2c-1.8,8.1-3.6,16.1-5.4,23l-1.3,5.3l6.3-0.4c8.5-0.6,18-1.9,27.3-4.1c4.7-1.1,9.4-2.3,14-3.7
			c4.5-1.4,8.8-3,12.9-4.6l6.1-2.5l-4.4-4.8C674.8,451.3,667.6,444.8,660,438.9z"/>
		<path id="XMLID_143_" class="st0" d="M617.9,496l-4.3-4.5l-2.6,4.8c-0.9,1.6-1.7,3.2-2.6,4.9c-0.9,1.7-1.9,3.4-2.9,5.1
			c-1.9,3.5-4,7-6.1,10.6c-4.2,7.2-8.5,14.1-12.3,20.3c0,0-0.7,1.2-1.4,2.3c-0.8,1.1-1.5,2.3-1.5,2.3l6.1,1.6
			c8.2,2,17.5,3.6,27.2,4.6c9.5,0.9,19.3,1,28.1,0.4l6.5-0.5l-2.8-6C641.9,525.9,629.6,508.3,617.9,496z"/>
		<path id="XMLID_142_" class="st5" d="M593.4,612.1c-1.3-8.9-3.2-18.3-6-27.5c-2.8-9.3-6.1-18.1-9.8-25.8l-2.8-5.7c0,0-1,1-1.9,1.9
			c-1,1-2,1.9-2,1.9c-2.7,2.4-5.4,5.1-8.4,7.8c-3,2.6-5.9,5.5-9.1,8.2c-6.2,5.5-12.4,10.9-17.9,15.5l-4.2,3.5l5.3,3.3
			c7.2,4.5,15.7,9,24.5,12.7c4.4,1.9,8.9,3.6,13.5,5.2c4.5,1.5,8.9,2.8,13.2,3.9l6.4,1.6c0,0-0.2-1.6-0.4-3.2
			C593.6,613.7,593.4,612.1,593.4,612.1z"/>
		<path id="XMLID_141_" class="st0" d="M519.1,599.8l-4.9,2.3c-3.2,1.6-6.7,3.1-10.3,4.8c-3.6,1.8-7.4,3.3-11.2,5
			c-7.6,3.4-15.2,6.5-21.8,9.2c0,0-1.2,0.6-2.5,1.1c-1.3,0.5-2.6,0.9-2.6,0.9l4,4.9c5.5,6.5,12.1,13.2,19.4,19.7
			c7.2,6.3,15,12.1,22.5,16.9l5.6,3.4l1.3-6.5c1.6-8.6,2.6-18.4,2.8-28c0.3-9.5-0.4-19.2-1.4-27.6L519.1,599.8z"/>
		<path id="XMLID_140_" class="st5" d="M451.6,626.9l-5.4,0.8c-3.6,0.3-7.4,0.8-11.3,1.4c-4,0.3-8.1,0.8-12.2,1.3
			c-4,0.3-8,0.7-11.9,1.1c-3.9,0.2-7.6,0.5-11.1,0.9c-0.2,0-0.4,0-0.6,0l-5.5,0.3l2.3,5.9c1.1,2.7,2.4,5.6,3.8,8.5
			c3.2,6.7,7,13.7,11.2,20.5c4.2,6.8,8.8,13,13.5,18.7l4.3,5.1c0,0,0.8-1.4,1.6-2.9c0.8-1.5,1.6-2.9,1.6-2.9
			c8.5-15.5,15.5-35.7,18.6-52.4L451.6,626.9z"/>
		<path id="XMLID_139_" class="st1" d="M694.2,400.2c-0.2-4.6-0.5-9-0.9-13.1c0,0-0.1-1.7-0.4-3.4c-0.2-1.7-0.5-3.4-0.5-3.4
			l-5.6,3.4c-8.8,5.2-19,11.1-28.6,16.6c-6.9,3.7-13.7,7.3-20,10.7c0,0-1.4,0.7-2.7,1.4c-1.4,0.7-2.8,1.4-2.8,1.4l5.1,3.4
			c6.9,4.7,14.8,10.1,22.5,15.7c3.9,2.9,7.8,5.8,11.7,8.6c3.8,2.9,7.5,5.7,10.9,8.3l5.2,4l1.6-6.7
			C692.9,433.2,694.6,415.7,694.2,400.2z"/>
		<path id="XMLID_138_" class="st2" d="M682.7,438.3c-5.5-4-11.2-8.1-17.1-12.2c-5.8-3.9-11.6-7.9-17.1-11.6
			c8.6-4.3,17.9-9.3,27.2-14.4c3.2-1.8,6.4-3.6,9.5-5.3c0.1,1.7,0.2,3.6,0.3,5.3C685.7,412.6,685.1,426.5,682.7,438.3z"/>
		<path class="st1" d="M678,473.2c-8.7,1.9-18.2,4-27.5,6c-9.6,1.9-18.7,3.6-27,4.9l-6.2,0.9l3.9,4.9c10.4,13.1,22.8,30.5,32.8,45
			l3.7,5.4l3.5-5.9c1.1-2,2.3-4,3.5-6.1c1.1-2.1,2.2-4.4,3.3-6.7c1.1-2.3,2.2-4.6,3.3-7c1-2.4,2-4.9,2.9-7.3c2-4.9,3.6-9.9,5.1-14.7
			c1.6-4.8,2.6-9.6,3.6-14.1c0,0,0.4-1.7,0.7-3.4c0.4-1.7,0.6-3.4,0.6-3.4s-1.6,0.4-3.2,0.8C679.6,472.8,678,473.2,678,473.2z
			 M657.2,524c-8.1-11.1-17-23-25.3-33.3c3.3-0.5,6.6-1,10.1-1.6c3.4-0.6,6.9-1.2,10.3-1.8c6.9-1.3,14.1-2.6,20.7-4
			C669.6,496.7,663.7,511.9,657.2,524z"/>
		<path id="XMLID_135_" class="st1" d="M628.1,554.4c-4.7-0.5-9.5-1.1-14.4-1.6c-9.5-1.1-19-2.4-27.2-3.6l-6.1-0.9
			c0,0,0.5,1.4,1.1,2.9c0.5,1.4,1,2.9,1,2.9c5.7,15.6,12.3,36.1,17.3,52.9l1.8,6.3l5.3-4.4c3.4-3,6.9-6.5,10.5-10
			c3.4-3.7,7-7.6,10.3-11.7c3.2-4.2,6.5-8.2,9.4-12.5c2.8-4.2,5.6-8.3,7.8-12.3l3.4-6l-6.5-0.6C637.4,555.2,632.8,554.8,628.1,554.4
			z"/>
		<path id="XMLID_134_" class="st2" d="M606.2,597.5c-4.1-12.8-9.2-27.2-13.7-39.4c6.6,1,13.5,2,20.4,3.1c7.1,1,14.1,1.8,20.9,2.6
			C626.6,575.5,616.2,588,606.2,597.5z"/>
		<path class="st1" d="M581.9,622.9c-8.1-3.6-17.1-7.4-25.8-11.4c-8.8-4.1-17.3-8.1-24.8-11.9l-5.5-2.8l0.3,6.2
			c0.4,8.5,0.4,17.7,0.5,27.5c0,9.7-0.2,19.3-0.4,28.2l-0.2,6.6c0,0,1.6-0.6,3.2-1.3c1.6-0.7,3.2-1.4,3.2-1.4
			c4.2-1.8,8.6-3.8,13.1-6.3c2.2-1.2,4.5-2.5,6.8-3.7c2.2-1.4,4.4-2.8,6.7-4.2c4.5-2.8,8.7-5.9,12.8-8.9c4.1-3,7.8-6.3,11.2-9.3
			c0,0,1.3-1.1,2.6-2.3c1.3-1.1,2.5-2.4,2.5-2.4s-1.5-0.6-3-1.2C583.4,623.5,581.9,622.9,581.9,622.9z M535.2,651.8
			c-0.1-13.7-0.3-28.6-1-41.8c5.8,3,12.2,6.2,18.5,9.2c6.4,3,12.9,6.2,19.1,9C561.3,636.9,547.6,645.8,535.2,651.8z"/>
		<path id="XMLID_131_" class="st1" d="M493.9,659.3c-3.5-3.2-7.1-6.4-10.7-9.7c-7.1-6.4-13.9-13.1-19.9-18.9l-4.4-4.3
			c0,0-0.4,1.5-0.8,3c-0.4,1.5-0.9,3-0.9,3c-4.6,16-11.3,36.4-17.1,52.9l-2.2,6.1c0,0,1.7-0.1,3.4-0.2c1.7-0.1,3.4-0.3,3.4-0.3
			c4.5-0.5,9.4-1.2,14.4-1.9c5-1,10.1-2.1,15.2-3.4c5.1-1.5,10.1-2.8,14.9-4.6c4.8-1.8,9.4-3.4,13.5-5.4l6.3-2.9l-4.9-4.3
			C500.9,665.5,497.5,662.4,493.9,659.3z"/>
		<path id="XMLID_130_" class="st2" d="M450.8,681.3c4.2-12.8,8.6-27.4,12.1-39.9c4.7,4.7,9.7,9.6,14.7,14.5
			c5.1,5,10.3,9.7,15.3,14.4C480.3,675.5,464.5,679.5,450.8,681.3z"/>
		<path class="st1" d="M399.7,658.9c-3.7-6.9-7.3-13.7-10.7-20c0,0-0.7-1.4-1.4-2.7c-0.7-1.4-1.4-2.8-1.4-2.8l-3.4,5.1
			c-4.7,6.9-10.1,14.8-15.7,22.5c-2.9,3.9-5.8,7.9-8.5,11.7c-2.9,3.8-5.7,7.5-8.3,10.9l-4,5.2l6.7,1.6c13.7,3.1,31.2,4.8,46.7,4.3
			c4.6-0.2,9-0.5,13.1-0.9c0,0,1.7-0.1,3.4-0.4c1.7-0.2,3.4-0.5,3.4-0.5l-3.4-5.6C411,678.7,405.1,668.5,399.7,658.9z M399.7,686.1
			c-12.4,0.2-26.3-0.4-38.1-2.8c4-5.6,8.1-11.3,12.2-17.1c3.9-5.8,7.9-11.6,11.6-17.1c4.3,8.6,9.3,17.9,14.4,27.2
			c1.8,3.2,3.6,6.4,5.3,9.5C403.3,685.9,401.4,686,399.7,686.1z"/>
		<path id="XMLID_127_" class="st0" d="M376,637.4l3-5.6c0,0-1.3-0.2-2.7-0.4c-1.3-0.3-2.7-0.5-2.7-0.5c-7.1-1.4-15.1-2.9-23.2-4.7
			c-8.1-1.8-16.1-3.6-23-5.4l-5.3-1.3l0.4,6.3c0.6,8.5,1.9,18,4.1,27.3c1.1,4.7,2.3,9.4,3.7,14c1.4,4.5,3,8.8,4.6,12.9l2.5,6.1
			l4.8-4.4c6.4-6.2,12.9-13.4,18.7-21.1C366.8,652.8,371.9,644.9,376,637.4z"/>
		<path id="XMLID_126_" class="st5" d="M308.4,614.2l-4.8-2.6c-1.6-0.9-3.2-1.7-4.9-2.6c-1.7-0.9-3.4-1.9-5.1-2.9
			c-3.5-1.9-7-4-10.6-6.1c-7.2-4.2-14.1-8.5-20.3-12.3c0,0-1.2-0.7-2.3-1.4c-1.1-0.8-2.3-1.5-2.3-1.5l-1.6,6.1
			c-2,8.2-3.6,17.6-4.6,27.2c-0.9,9.5-1,19.3-0.4,28.2l0.5,6.5l6-2.8c16-7.5,33.6-19.8,45.8-31.5L308.4,614.2z"/>
		<path id="XMLID_125_" class="st0" d="M215.3,588c9.3-2.8,18.1-6.1,25.8-9.8l5.7-2.8c0,0-1-1-1.9-1.9c-1-1-1.9-2-1.9-2
			c-2.4-2.7-5.1-5.5-7.8-8.4c-2.6-3-5.5-5.9-8.2-9.1c-5.5-6.2-10.9-12.4-15.5-17.9l-3.5-4.2l-3.3,5.3c-4.5,7.2-9,15.7-12.7,24.5
			c-1.9,4.4-3.6,9-5.2,13.5c-1.5,4.5-2.8,8.9-3.9,13.2l-1.6,6.4c0,0,1.6-0.2,3.2-0.4c1.6-0.2,3.3-0.4,3.3-0.4
			C196.7,592.8,206.1,590.8,215.3,588z"/>
		<path id="XMLID_124_" class="st5" d="M166.3,521.9c9.5,0.3,19.2-0.4,27.6-1.4l6.2-0.8l-2.3-4.9c-1.6-3.2-3.1-6.7-4.8-10.3
			c-1.8-3.6-3.3-7.4-5-11.2c-3.4-7.6-6.4-15.2-9.2-21.8c0,0-0.6-1.2-1.1-2.5c-0.5-1.3-0.9-2.6-0.9-2.6l-4.9,4
			c-6.5,5.5-13.2,12.1-19.7,19.4c-6.3,7.2-12.1,15-16.9,22.5l-3.4,5.6l6.5,1.3C146.9,520.7,156.7,521.6,166.3,521.9z"/>
		<path id="XMLID_123_" class="st0" d="M114.4,432.4c15.5,8.5,35.7,15.5,52.4,18.6l6.2,1.1l-0.8-5.4c-0.3-3.6-0.8-7.4-1.4-11.3
			c-0.3-4-0.8-8.1-1.3-12.2c-0.3-4-0.7-8-1.1-11.9c-0.2-3.9-0.5-7.6-0.9-11.1c0-0.2,0-0.4,0-0.6l-0.3-5.5l-5.9,2.3
			c-2.7,1.1-5.6,2.4-8.5,3.8c-6.7,3.2-13.7,7-20.5,11.2c-6.8,4.2-13,8.8-18.7,13.5l-5.1,4.3c0,0,1.4,0.8,2.9,1.6
			C112.9,431.6,114.4,432.4,114.4,432.4z"/>
		<path id="XMLID_122_" class="st1" d="M326.7,678.6c-1.9-8.7-4-18.2-6-27.6c-1.9-9.6-3.6-18.8-4.9-27l-0.9-6.2l-4.9,3.9
			c-13.1,10.4-30.4,22.8-45,32.8l-5.4,3.7l5.9,3.5c2,1.1,4,2.3,6.1,3.5c2.1,1.1,4.4,2.2,6.7,3.3c2.3,1.1,4.6,2.2,7,3.3
			c2.4,1,4.9,2,7.3,2.9c4.9,2,9.9,3.6,14.7,5.1c4.8,1.6,9.6,2.6,14.1,3.6c0,0,1.7,0.4,3.4,0.7c1.7,0.4,3.4,0.6,3.4,0.6
			s-0.4-1.6-0.8-3.2C327,680.2,326.7,678.6,326.7,678.6z"/>
		<path id="XMLID_121_" class="st2" d="M275.9,657.8c11.1-8.1,23-17,33.3-25.3c0.5,3.3,1,6.6,1.6,10.1c0.6,3.4,1.2,6.9,1.8,10.3
			c1.3,6.9,2.6,14.1,3.9,20.7C303.2,670.2,288,664.3,275.9,657.8z"/>
		<path class="st1" d="M248.8,582.1c-1.4,0.5-2.9,1-2.9,1c-15.6,5.7-36,12.3-52.9,17.3l-6.3,1.8l4.4,5.3c3,3.4,6.5,6.9,10,10.5
			c3.7,3.4,7.6,7,11.7,10.3c4.2,3.2,8.2,6.5,12.4,9.4c4.2,2.8,8.3,5.6,12.3,7.8l6,3.4l0.6-6.5c0.4-4.3,0.8-8.9,1.3-13.7
			c0.5-4.7,1.1-9.5,1.6-14.4c1.1-9.5,2.4-19,3.6-27.2l0.9-6.1C251.7,581,250.3,581.6,248.8,582.1z M238.7,613.6
			c-1,7.1-1.8,14.1-2.6,20.9c-11.7-7.2-24.2-17.6-33.7-27.6c12.8-4.1,27.2-9.2,39.4-13.7C240.8,599.7,239.8,606.7,238.7,613.6z"/>
		<path id="XMLID_118_" class="st1" d="M200.3,531.9l2.8-5.5l-6.2,0.3c-8.5,0.4-17.7,0.4-27.5,0.5c-9.7,0-19.3-0.2-28.2-0.4
			l-6.6-0.2c0,0,0.6,1.6,1.3,3.2c0.7,1.6,1.4,3.2,1.4,3.2c1.8,4.2,3.8,8.6,6.3,13.1c1.2,2.2,2.5,4.5,3.7,6.8
			c1.4,2.2,2.8,4.4,4.2,6.7c2.8,4.5,5.9,8.7,8.9,12.8c3,4.1,6.3,7.8,9.3,11.2c0,0,1.1,1.3,2.3,2.6c1.1,1.3,2.4,2.5,2.4,2.5
			s0.6-1.5,1.2-3c0.6-1.5,1.3-3,1.3-3c3.6-8.1,7.4-17.1,11.4-25.8C192.5,547.8,196.5,539.4,200.3,531.9z"/>
		<path id="XMLID_117_" class="st2" d="M171.7,572.5c-8.8-10.6-17.6-24.3-23.6-36.6c13.7-0.1,28.6-0.3,41.8-1
			c-3,5.8-6.2,12.2-9.2,18.5C177.7,559.7,174.5,566.3,171.7,572.5z"/>
		<path class="st1" d="M150.4,483.7c6.4-7.1,13.1-13.9,18.9-19.9l4.3-4.4c0,0-1.5-0.4-3-0.8c-1.5-0.4-3-0.9-3-0.9
			c-16-4.6-36.3-11.3-52.9-17.1l-6.1-2.2c0,0,0.1,1.7,0.2,3.4c0.1,1.7,0.3,3.4,0.3,3.4c0.5,4.5,1.2,9.4,1.9,14.4
			c1,5,2.1,10.1,3.4,15.2c1.5,5.1,2.8,10.1,4.6,14.9c1.8,4.8,3.4,9.4,5.4,13.5l2.9,6.3l4.3-4.9c2.9-3.3,5.9-6.7,9.1-10.3
			C143.9,490.9,147.1,487.3,150.4,483.7z M129.7,493.6c-5.2-12.7-9.3-28.5-11-42.2c12.8,4.2,27.4,8.6,39.9,12.1
			c-4.7,4.7-9.6,9.7-14.5,14.7C139.1,483.3,134.3,488.5,129.7,493.6z"/>
		<path id="XMLID_114_" class="st1" d="M141,400.2c6.9-3.7,13.7-7.3,20-10.7c0,0,1.4-0.7,2.7-1.4c1.4-0.7,2.8-1.4,2.8-1.4l-5.1-3.4
			c-6.9-4.7-14.8-10.1-22.5-15.7c-3.9-2.9-7.8-5.8-11.7-8.6c-3.8-2.9-7.5-5.7-10.9-8.3l-5.2-4l-1.6,6.7c-3.1,13.7-4.8,31.2-4.3,46.8
			c0.2,4.6,0.5,9,0.9,13.1c0,0,0.1,1.7,0.4,3.4c0.2,1.7,0.5,3.4,0.5,3.4l5.6-3.4C121.3,411.5,131.4,405.6,141,400.2z"/>
		<path id="XMLID_113_" class="st2" d="M116.6,362c5.5,4,11.2,8.1,17.1,12.2c5.8,3.9,11.6,7.9,17.1,11.6
			c-8.6,4.3-17.9,9.3-27.2,14.4c-3.2,1.8-6.4,3.6-9.5,5.3c-0.1-1.7-0.2-3.6-0.3-5.3C113.6,387.7,114.2,373.9,116.6,362z"/>
		<path id="XMLID_112_" class="st5" d="M139.4,361.4c7.8,5.9,15.7,11,23.1,15.1l5.6,3c0,0,0.2-1.3,0.4-2.7c0.3-1.3,0.5-2.7,0.5-2.7
			c1.4-7.1,2.9-15.1,4.7-23.2c1.8-8.1,3.6-16.1,5.4-23l1.3-5.3l-6.3,0.4c-8.5,0.6-18,1.9-27.3,4.1c-4.7,1.1-9.4,2.3-14,3.7
			c-4.5,1.4-8.8,3-12.9,4.6l-6.1,2.5l4.4,4.8C124.5,349.1,131.7,355.6,139.4,361.4z"/>
		<path id="XMLID_111_" class="st0" d="M181.4,304.3l4.3,4.5l2.6-4.8c0.9-1.6,1.7-3.2,2.6-4.9c0.9-1.7,1.9-3.4,2.9-5.1
			c1.9-3.5,4-7,6.1-10.6c4.2-7.2,8.5-14.1,12.3-20.3c0,0,0.7-1.2,1.4-2.3c0.8-1.1,1.5-2.3,1.5-2.3L209,257c-8.2-2-17.5-3.6-27.2-4.6
			c-9.5-0.9-19.3-1-28.1-0.4l-6.5,0.5l2.8,6C157.4,274.5,169.7,292.1,181.4,304.3z"/>
		<path id="XMLID_110_" class="st5" d="M205.9,188.2c1.3,8.9,3.2,18.3,6,27.5c2.8,9.3,6.1,18.1,9.8,25.8l2.8,5.7c0,0,1-1,1.9-1.9
			c1-1,2-1.9,2-1.9c2.7-2.4,5.4-5.1,8.4-7.8c3-2.6,5.9-5.5,9.1-8.2c6.2-5.5,12.4-10.9,17.9-15.5l4.2-3.5l-5.3-3.3
			c-7.2-4.5-15.7-9-24.5-12.7c-4.4-1.9-8.9-3.6-13.5-5.2c-4.5-1.5-8.9-2.8-13.2-3.9l-6.4-1.6c0,0,0.2,1.6,0.4,3.2
			C205.7,186.6,205.9,188.2,205.9,188.2z"/>
		<path id="XMLID_109_" class="st0" d="M280.3,200.5l4.9-2.3c3.2-1.6,6.7-3.1,10.3-4.8c3.6-1.8,7.4-3.3,11.2-5
			c7.6-3.4,15.2-6.5,21.8-9.2c0,0,1.2-0.6,2.5-1.1c1.3-0.5,2.6-0.9,2.6-0.9l-4-4.9c-5.5-6.5-12.1-13.2-19.4-19.7
			c-7.2-6.3-15-12.1-22.5-16.9l-5.6-3.4l-1.3,6.5c-1.6,8.6-2.6,18.4-2.8,28c-0.3,9.5,0.4,19.2,1.4,27.6L280.3,200.5z"/>
		<path id="XMLID_108_" class="st5" d="M347.7,173.4l5.4-0.8c3.6-0.3,7.4-0.8,11.3-1.4c4-0.3,8.1-0.8,12.2-1.3c4-0.3,8-0.7,11.9-1.1
			c3.9-0.2,7.6-0.5,11.1-0.9c0.2,0,0.4,0,0.6,0l5.5-0.3l-2.3-5.9c-1.1-2.7-2.4-5.6-3.8-8.5c-3.2-6.7-7-13.7-11.2-20.5
			c-4.2-6.8-8.8-13-13.5-18.7l-4.3-5.1c0,0-0.8,1.4-1.6,2.9c-0.8,1.5-1.6,2.9-1.6,2.9c-8.5,15.5-15.5,35.7-18.6,52.4L347.7,173.4z"
			/>
		<path class="st1" d="M121.3,327.1c8.7-1.9,18.2-4,27.5-6c9.6-1.9,18.7-3.6,27-4.9l6.2-0.9l-3.9-4.9c-10.4-13.1-22.8-30.5-32.8-45
			l-3.7-5.4l-3.5,5.9c-1.1,2-2.3,4-3.5,6.1c-1.1,2.1-2.2,4.4-3.3,6.7c-1.1,2.3-2.2,4.6-3.3,7c-1,2.4-2,4.9-2.9,7.3
			c-2,4.9-3.6,9.9-5.1,14.8c-1.6,4.8-2.6,9.6-3.6,14.1c0,0-0.4,1.7-0.7,3.4c-0.4,1.7-0.6,3.4-0.6,3.4s1.6-0.4,3.2-0.8
			C119.7,327.5,121.3,327.1,121.3,327.1z M142.1,276.3c8.1,11.1,17,23,25.3,33.3c-3.3,0.5-6.6,1-10.1,1.6c-3.4,0.6-6.9,1.2-10.3,1.8
			c-6.9,1.3-14.1,2.6-20.7,4C129.7,303.6,135.6,288.4,142.1,276.3z"/>
		<path id="XMLID_105_" class="st1" d="M171.2,246c4.7,0.5,9.5,1.1,14.4,1.6c9.5,1.1,19,2.4,27.2,3.6l6.1,0.9c0,0-0.5-1.4-1.1-2.9
			c-0.5-1.4-1-2.9-1-2.9c-5.7-15.6-12.3-36.1-17.3-52.9l-1.8-6.3l-5.3,4.4c-3.4,3-6.9,6.5-10.5,10c-3.4,3.7-7,7.6-10.3,11.7
			c-3.2,4.2-6.5,8.2-9.4,12.5c-2.8,4.2-5.6,8.3-7.8,12.3l-3.4,6l6.5,0.6C161.9,245.1,166.5,245.5,171.2,246z"/>
		<path id="XMLID_104_" class="st2" d="M193.1,202.9c4.1,12.8,9.2,27.2,13.7,39.4c-6.6-1-13.5-2-20.4-3.1c-7.1-1-14.1-1.8-20.9-2.6
			C172.7,224.9,183.1,212.3,193.1,202.9z"/>
		<path class="st1" d="M217.4,177.5c8.1,3.6,17.1,7.4,25.8,11.4c8.8,4.1,17.3,8.1,24.8,11.9l5.5,2.8l-0.3-6.2
			c-0.4-8.5-0.4-17.7-0.5-27.5c0-9.7,0.2-19.3,0.4-28.2l0.2-6.6c0,0-1.6,0.6-3.2,1.3c-1.6,0.7-3.2,1.4-3.2,1.4
			c-4.2,1.8-8.6,3.8-13.1,6.3c-2.2,1.2-4.5,2.5-6.8,3.7c-2.2,1.4-4.4,2.8-6.7,4.2c-4.5,2.8-8.7,5.9-12.8,8.9
			c-4.1,3-7.8,6.3-11.2,9.3c0,0-1.3,1.1-2.6,2.3c-1.3,1.1-2.5,2.4-2.5,2.4s1.5,0.6,3,1.2C215.9,176.8,217.4,177.5,217.4,177.5z
			 M264.1,148.6c0.1,13.7,0.3,28.6,1,41.8c-5.8-3-12.2-6.2-18.5-9.2c-6.4-3-12.9-6.2-19.1-9C238,163.4,251.7,154.6,264.1,148.6z"/>
		<path id="XMLID_101_" class="st1" d="M305.4,141.1c3.5,3.2,7.1,6.4,10.7,9.7c7.1,6.4,13.9,13.1,19.9,18.9l4.4,4.3
			c0,0,0.4-1.5,0.8-3c0.4-1.5,0.9-3,0.9-3c4.6-16,11.3-36.4,17.1-52.9l2.2-6.1c0,0-1.7,0.1-3.4,0.2c-1.7,0.1-3.4,0.3-3.4,0.3
			c-4.5,0.5-9.4,1.2-14.4,1.9c-5,1-10.1,2.1-15.2,3.4c-5.1,1.5-10.1,2.8-14.9,4.6c-4.8,1.8-9.4,3.4-13.5,5.4l-6.3,2.9l4.9,4.3
			C298.4,134.9,301.9,137.9,305.4,141.1z"/>
		<path id="XMLID_100_" class="st2" d="M348.5,119c-4.2,12.8-8.6,27.4-12.1,39.9c-4.7-4.7-9.7-9.6-14.7-14.5
			c-5.1-5-10.3-9.7-15.3-14.4C319,124.8,334.8,120.8,348.5,119z"/>
		<path class="st1" d="M399.7,141.4c3.7,6.9,7.3,13.7,10.7,20c0,0,0.7,1.4,1.4,2.7c0.7,1.4,1.4,2.8,1.4,2.8l3.4-5.1
			c4.7-6.9,10.1-14.8,15.7-22.5c2.9-3.9,5.8-7.9,8.5-11.7c2.9-3.8,5.7-7.5,8.3-10.9l4-5.2l-6.7-1.6c-13.7-3.1-31.2-4.8-46.7-4.3
			c-4.6,0.2-9,0.5-13.1,0.9c0,0-1.7,0.1-3.4,0.4c-1.7,0.2-3.4,0.5-3.4,0.5l3.4,5.6C388.3,121.7,394.2,131.8,399.7,141.4z
			 M399.7,114.2c12.4-0.2,26.3,0.4,38.1,2.8c-4,5.6-8.1,11.3-12.2,17.1c-3.9,5.8-7.9,11.6-11.6,17.1c-4.3-8.6-9.3-17.9-14.4-27.2
			c-1.8-3.2-3.6-6.4-5.3-9.5C396,114.4,397.9,114.3,399.7,114.2z"/>
		<path id="XMLID_97_" class="st0" d="M423.4,162.9l-3,5.6c0,0,1.3,0.2,2.7,0.4c1.3,0.3,2.7,0.5,2.7,0.5c7.1,1.4,15.1,2.9,23.2,4.7
			c8.1,1.8,16.1,3.6,23,5.4l5.3,1.3l-0.4-6.3c-0.6-8.5-1.9-18-4.1-27.3c-1.1-4.7-2.3-9.4-3.7-14c-1.4-4.5-3-8.8-4.6-12.9l-2.5-6.1
			l-4.8,4.4c-6.4,6.2-12.9,13.4-18.7,21.1C432.6,147.5,427.4,155.5,423.4,162.9z"/>
		<path id="XMLID_96_" class="st5" d="M490.9,186.1l4.8,2.6c1.6,0.9,3.2,1.7,4.9,2.6c1.7,0.9,3.4,1.9,5.1,2.9c3.5,1.9,7,4,10.6,6.1
			c7.2,4.2,14.1,8.5,20.3,12.3c0,0,1.2,0.7,2.3,1.4c1.1,0.8,2.3,1.5,2.3,1.5l1.6-6.1c2-8.2,3.6-17.6,4.6-27.2
			c0.9-9.5,1-19.3,0.4-28.2l-0.5-6.5l-6,2.8c-16,7.5-33.6,19.8-45.8,31.5L490.9,186.1z"/>
		<path id="XMLID_95_" class="st0" d="M584,212.3c-9.3,2.8-18.1,6.1-25.8,9.8l-5.7,2.8c0,0,1,1,1.9,1.9c1,1,1.9,2,1.9,2
			c2.4,2.7,5.1,5.5,7.8,8.4c2.6,3,5.5,5.9,8.2,9.1c5.5,6.2,10.9,12.4,15.5,17.9l3.5,4.2l3.3-5.3c4.5-7.2,9-15.7,12.7-24.5
			c1.9-4.4,3.6-9,5.2-13.5c1.5-4.5,2.8-8.9,3.9-13.2l1.6-6.4c0,0-1.6,0.2-3.2,0.4c-1.6,0.2-3.3,0.4-3.3,0.4
			C602.7,207.6,593.3,209.5,584,212.3z"/>
		<path id="XMLID_94_" class="st5" d="M633,278.5c-9.5-0.3-19.2,0.4-27.6,1.4l-6.2,0.8l2.3,4.9c1.6,3.2,3.1,6.7,4.8,10.3
			c1.8,3.6,3.3,7.4,5,11.2c3.4,7.6,6.5,15.2,9.2,21.8c0,0,0.6,1.2,1.1,2.5c0.5,1.3,0.9,2.6,0.9,2.6l4.9-4
			c6.5-5.5,13.2-12.1,19.7-19.4c6.3-7.2,12.1-15,16.9-22.5l3.4-5.6l-6.5-1.3C652.4,279.6,642.6,278.7,633,278.5z"/>
		<path id="XMLID_93_" class="st0" d="M684.9,367.9c-15.5-8.5-35.7-15.5-52.4-18.6l-6.2-1.1l0.8,5.4c0.3,3.6,0.8,7.4,1.4,11.3
			c0.3,4,0.8,8.1,1.3,12.2c0.3,4,0.7,8,1.1,11.9c0.2,3.9,0.5,7.6,0.9,11.1c0,0.2,0,0.4,0,0.6l0.3,5.5l5.9-2.3
			c2.7-1.1,5.6-2.4,8.5-3.8c6.7-3.2,13.7-7,20.5-11.2c6.8-4.2,13-8.8,18.7-13.5l5.1-4.3c0,0-1.4-0.8-2.9-1.6
			C686.4,368.7,684.9,367.9,684.9,367.9z"/>
		<path id="XMLID_92_" class="st1" d="M472.7,121.7c1.9,8.7,4,18.2,6,27.6c1.9,9.6,3.6,18.8,4.9,27l0.9,6.2l4.9-3.9
			c13.1-10.4,30.4-22.8,45-32.8l5.4-3.7l-5.9-3.5c-2-1.1-4-2.3-6.1-3.5c-2.1-1.1-4.4-2.2-6.7-3.3c-2.3-1.1-4.6-2.2-7-3.3
			c-2.4-1-4.9-2-7.3-2.9c-4.9-2-9.9-3.6-14.7-5.1c-4.8-1.6-9.6-2.6-14.1-3.6c0,0-1.7-0.4-3.4-0.7c-1.7-0.4-3.4-0.6-3.4-0.6
			s0.4,1.6,0.8,3.2C472.3,120.1,472.7,121.7,472.7,121.7z"/>
		<path id="XMLID_91_" class="st2" d="M523.5,142.5c-11.1,8.1-23,17-33.3,25.3c-0.5-3.3-1-6.6-1.6-10.1c-0.6-3.4-1.2-6.9-1.8-10.3
			c-1.3-6.9-2.6-14.1-3.9-20.7C496.2,130.1,511.3,136,523.5,142.5z"/>
		<path class="st1" d="M550.5,218.2c1.4-0.5,2.9-1,2.9-1c15.6-5.7,36-12.3,52.9-17.3l6.3-1.8l-4.4-5.3c-3-3.4-6.5-6.9-10-10.5
			c-3.7-3.4-7.6-7-11.7-10.3c-4.2-3.2-8.2-6.5-12.4-9.4c-4.2-2.8-8.3-5.6-12.3-7.8l-6-3.4l-0.6,6.5c-0.4,4.3-0.8,8.9-1.3,13.7
			c-0.5,4.7-1.1,9.5-1.6,14.4c-1.1,9.5-2.4,19-3.6,27.2l-0.9,6.1C547.6,219.3,549,218.8,550.5,218.2z M560.6,186.8
			c1-7.1,1.8-14.1,2.6-20.9c11.7,7.2,24.2,17.6,33.7,27.6c-12.8,4.1-27.2,9.2-39.4,13.7C558.5,200.6,559.5,193.7,560.6,186.8z"/>
		<path id="XMLID_88_" class="st1" d="M599,268.4l-2.8,5.5l6.2-0.3c8.5-0.4,17.7-0.4,27.5-0.5c9.7,0,19.3,0.2,28.2,0.4l6.6,0.2
			c0,0-0.6-1.6-1.3-3.2c-0.7-1.6-1.4-3.2-1.4-3.2c-1.8-4.2-3.8-8.6-6.3-13.1c-1.2-2.2-2.5-4.5-3.7-6.8c-1.4-2.2-2.8-4.4-4.2-6.7
			c-2.8-4.5-5.9-8.7-8.9-12.8c-3-4.1-6.3-7.8-9.3-11.2c0,0-1.1-1.3-2.3-2.6c-1.1-1.3-2.4-2.5-2.4-2.5s-0.6,1.5-1.2,3
			c-0.6,1.5-1.3,3-1.3,3c-3.6,8.1-7.4,17.1-11.4,25.8C606.8,252.5,602.8,260.9,599,268.4z"/>
		<path id="XMLID_87_" class="st2" d="M627.6,227.9c8.8,10.6,17.6,24.3,23.6,36.6c-13.7,0.1-28.6,0.3-41.8,1
			c3-5.8,6.2-12.2,9.2-18.5C621.6,240.6,624.8,234,627.6,227.9z"/>
		<path class="st1" d="M648.9,316.6c-6.4,7.1-13.1,13.9-18.9,19.9l-4.3,4.4c0,0,1.5,0.4,3,0.8c1.5,0.4,3,0.9,3,0.9
			c16,4.6,36.3,11.3,52.9,17.1l6.1,2.2c0,0-0.1-1.7-0.2-3.4c-0.1-1.7-0.3-3.4-0.3-3.4c-0.5-4.5-1.2-9.4-1.9-14.4
			c-1-5-2.1-10.1-3.4-15.2c-1.5-5.1-2.8-10.1-4.6-14.9c-1.8-4.8-3.4-9.4-5.4-13.5l-2.9-6.3l-4.3,4.9c-2.9,3.3-5.9,6.7-9.1,10.3
			C655.5,309.4,652.2,313,648.9,316.6z M669.7,306.8c5.2,12.7,9.3,28.5,11,42.2c-12.8-4.2-27.4-8.6-39.9-12.1
			c4.7-4.7,9.6-9.7,14.5-14.7C660.2,317,665,311.8,669.7,306.8z"/>
	</g>
	<g>
		<g>
			<path id="XMLID_84_" class="st0" d="M550.1,399.2c0,0-1.5-2.2-3.9-4.3c-2.4-2.1-5.6-4-9-3.8l0.5,9.1h11.8
				C549.8,399.6,550.1,399.2,550.1,399.2z"/>
			<path id="XMLID_83_" class="st0" d="M542.4,352.7c0,0-2.1-1.6-5-2.9c-2.9-1.3-6.5-2.1-9.7-0.8c0,0,1.4,3.8,2.8,7.6
				c0.3,1,0.8,1.9,1,2.8c0.2,0.9,0.4,1.8,0.6,2.5c0.4,1.5,0.6,2.5,0.6,2.5c3.3-0.9,5.8-3.7,7.5-6.5c0.9-1.4,1.4-2.7,1.7-3.7
				C542.2,353.4,542.4,352.7,542.4,352.7z"/>
			<path id="XMLID_82_" class="st0" d="M520.7,311c0,0-2.5-1-5.5-1.3c-3.1-0.4-6.7-0.1-9.4,2.2c0,0,0.2,0.2,0.5,0.5
				c0.3,0.4,0.6,0.9,1.1,1.5c0.9,1.2,2.1,2.9,3.3,4.5c1.2,1.6,2.5,3.2,3.4,4.5c0.8,1.3,1.3,2.2,1.3,2.2c2.8-1.8,4.6-5.5,5-8.4
				C520.9,313.6,520.7,311,520.7,311z"/>
			<path id="XMLID_81_" class="st0" d="M487.2,277.9c0,0-2.6-0.2-5.6,0.4c-3.1,0.8-6.6,2.3-8.4,5.2c0,0,0.9,0.5,2.2,1.3
				c1.4,0.7,2.9,2,4.6,3.2c3.3,2.4,6.5,4.9,6.5,4.9c2.2-2.7,2.5-6.3,2.1-9.4C488.2,280.4,487.2,277.9,487.2,277.9z"/>
			<path id="XMLID_80_" class="st0" d="M445.2,256.7c0,0-0.6,0.1-1.6,0.5c-1,0.4-2.3,1-3.7,1.8c-2.7,1.6-5.5,4.2-6.3,7.5
				c0,0,1,0.3,2.5,0.6c1.5,0.4,3.5,0.8,5.4,1.4c3.8,1.4,7.6,2.8,7.6,2.8c1.2-3.2,0.4-6.8-0.9-9.7
				C446.9,258.8,445.2,256.7,445.2,256.7z"/>
			<path id="XMLID_79_" class="st0" d="M398.7,249.7c0,0-2.2,1.5-4.3,3.9c-2.1,2.4-4,5.6-3.8,9c0,0,4.1-0.2,8.1-0.5
				c2-0.1,4.1,0.2,5.6,0.2c1.5,0.1,2.5,0.1,2.5,0.1c0.2-3.4-1.7-6.7-3.9-9.1c-1.1-1.2-2.1-2.2-3-2.9
				C399.2,250,398.7,249.7,398.7,249.7z"/>
			<path id="XMLID_78_" class="st0" d="M352.3,257.4c0,0-1.6,2.1-2.9,5c-1.3,2.9-2.1,6.5-0.8,9.7c0,0,3.8-1.4,7.6-2.8
				c1-0.3,1.9-0.8,2.8-1c0.9-0.2,1.8-0.4,2.5-0.6c1.5-0.4,2.5-0.6,2.5-0.6c-0.9-3.3-3.7-5.8-6.5-7.5c-1.4-0.9-2.7-1.4-3.7-1.7
				C352.9,257.5,352.3,257.4,352.3,257.4z"/>
			<path id="XMLID_77_" class="st0" d="M310.6,279.1c0,0-1,2.5-1.3,5.5c-0.4,3.1-0.1,6.7,2.2,9.4c0,0,0.2-0.2,0.5-0.5
				c0.4-0.3,0.9-0.6,1.5-1.1c1.2-0.9,2.9-2.1,4.5-3.3c1.6-1.2,3.2-2.5,4.5-3.4c1.3-0.8,2.2-1.3,2.2-1.3c-1.8-2.8-5.5-4.6-8.4-5
				C313.2,278.9,310.6,279.1,310.6,279.1z"/>
			<path id="XMLID_76_" class="st0" d="M277.5,312.6c0,0-0.2,2.6,0.4,5.6c0.8,3.1,2.3,6.6,5.2,8.4c0,0,0.5-0.9,1.3-2.2
				c0.7-1.4,2-2.9,3.2-4.6c2.4-3.3,4.9-6.5,4.9-6.5c-2.7-2.2-6.3-2.5-9.4-2.1C279.9,311.6,277.5,312.6,277.5,312.6z"/>
			<path id="XMLID_75_" class="st0" d="M256.3,354.6c0,0,0.1,0.6,0.5,1.6c0.4,1,1,2.3,1.8,3.7c1.6,2.7,4.1,5.5,7.5,6.4
				c0,0,0.3-1,0.6-2.5c0.4-1.5,0.8-3.5,1.4-5.4c1.4-3.8,2.8-7.6,2.8-7.6c-3.2-1.2-6.8-0.4-9.7,0.9
				C258.4,352.9,256.3,354.6,256.3,354.6z"/>
			<path id="XMLID_74_" class="st0" d="M249.9,400.2h11.8l0.4-7.2C256.6,392.6,251.7,397.8,249.9,400.2z"/>
			<path id="XMLID_73_" class="st2" d="M233,381.5c4.6,0.5,8.7-1.9,9.2-5.3c0.5-3.4-2.7-6.9-7.2-7.8c-4.5-0.9-8.6,1.5-9.2,5.3
				C225.1,377.6,228.4,381,233,381.5z"/>
			<path id="XMLID_72_" class="st2" d="M275.8,287.2c3.4,3.1,8.1,3.5,10.3,1c2.4-2.4,2-6.9-1.1-10.3c-3.1-3.3-8-4.1-10.7-1.3
				C271.8,279.3,272.4,284.1,275.8,287.2z"/>
			<path id="XMLID_71_" class="st2" d="M365.8,235.7c1,4.5,4.5,7.7,7.9,7.2c3.4-0.5,5.7-4.6,5.2-9.2c-0.5-4.6-4-7.8-7.9-7.2
				C367.2,227.1,364.9,231.2,365.8,235.7z"/>
			<path id="XMLID_70_" class="st2" d="M468.9,247.4c-1.9,4.2-0.9,8.8,2.2,10.3c3.1,1.4,7.4-0.6,9.6-4.5c2.3-4.1,1.3-8.8-2.1-10.4
				C475,241.1,470.7,243.2,468.9,247.4z"/>
			<path id="XMLID_69_" class="st2" d="M545.4,317.3c-4,2.3-5.6,6.5-4.2,9.6c1.5,3.1,6.1,4,10.2,2.1c4.2-1.9,6.2-6.3,4.5-9.8
				C554.4,315.7,549.4,315,545.4,317.3z"/>
			<path id="XMLID_68_" class="st0" d="M246.9,330.9c4.2,1.9,8.8,0.9,10.3-2.2c1.4-3.1-0.6-7.4-4.5-9.6c-4.1-2.3-8.8-1.3-10.4,2.1
				C240.7,324.7,242.7,329.1,246.9,330.9z"/>
			<path id="XMLID_67_" class="st0" d="M316.8,254.3c2.3,4,6.4,5.6,9.6,4.2c3.1-1.5,4-6.1,2.1-10.2c-1.9-4.2-6.3-6.2-9.8-4.5
				C315.2,245.3,314.5,250.4,316.8,254.3z"/>
			<path id="XMLID_66_" class="st0" d="M418.3,233.4c-0.5,4.6,1.9,8.7,5.3,9.2c3.4,0.5,6.9-2.7,7.8-7.2c0.9-4.5-1.5-8.6-5.3-9.2
				C422.2,225.6,418.8,228.8,418.3,233.4z"/>
			<path id="XMLID_65_" class="st0" d="M512.6,276.3c-3.1,3.4-3.5,8.1-1,10.4c2.4,2.4,6.9,2,10.3-1.1c3.3-3.1,4.1-8,1.3-10.7
				C520.5,272.2,515.7,272.9,512.6,276.3z"/>
			<path id="XMLID_64_" class="st0" d="M564.1,366.3c-4.5,1-7.7,4.5-7.2,7.9c0.5,3.4,4.6,5.7,9.2,5.2c4.6-0.5,7.8-4.1,7.2-7.9
				C572.7,367.7,568.6,365.4,564.1,366.3z"/>
			<path class="st1" d="M239.6,352.7c5,1.5,11.6,5.4,16.5,10.2c2.5,2.4,4.6,5,5.8,7.8c1.3,2.7,2.2,5.7,1.7,8.8
				c-0.2,1.6-0.8,3-1.5,4.3c-0.8,1.3-1.7,2.5-2.7,3.7c-2,2.3-4.8,4.2-7.9,5.7c-6.2,3.1-13.6,5-18.8,4.9c-8.2-0.1-17.6-2.8-26.6-7.5
				c-9-4.6-18.1-11.3-24.5-17.8c0,0-1.6-1.6-3.3-3.3c-1.6-1.7-3.3-3.4-3.3-3.4s2.1-1.1,4.1-2.3c2.1-1.1,4.1-2.2,4.1-2.2
				c8.1-4.3,18.6-8,28.6-9.8C221.9,350.1,231.7,350.3,239.6,352.7z M237,362.8c-4.2-1-9.8-1.1-16.6-0.2c-6.6,1-14.1,3.2-22.6,6.9
				c7,6.1,13.4,10.4,19.6,13.3c6.2,2.9,11.5,4.4,15.9,4.7c3.3,0.2,15.7-2,17.2-10.1c0.7-4.1-2.2-7.5-5.2-10.1
				C242.2,364.9,238.5,363.2,237,362.8z"/>
			<path class="st5" d="M262.1,305.5c2.2,1.5,4.4,3.7,6.6,6.2c2.2,2.6,4.3,5.6,5.9,8.6c1.6,3.1,2.9,6.2,3.2,9.3
				c0.2,1.5,0.2,3-0.1,4.4c-0.1,1.5-0.5,3-1.2,4.4c-1.4,2.8-3.6,4.8-6.5,6.2c-2.7,1.5-5.8,2.5-9.2,3c-6.8,1.1-14.4,0.5-19.3-1.2
				c-7.8-2.6-15.9-8.1-23.1-15.4c-3.6-3.6-7-7.7-10.1-11.9c-2.9-4.1-5.4-8.4-7.6-12.6c0,0-1.1-2.1-2.1-4.2c-1-2.1-2.1-4.2-2.1-4.2
				s2.3-0.4,4.6-0.9c2.3-0.4,4.5-0.8,4.5-0.8c9.3-1.4,20.4-1.7,30.3-0.3c5,0.7,9.8,1.8,14.2,3.4
				C254.6,301.2,258.7,303.2,262.1,305.5z M256.5,314.4c-3.7-2.2-9-4.1-15.6-5.3c-3.3-0.6-7-1-11.1-1.1c-3.9-0.1-8.1,0.1-12.7,0.6
				c9.6,15.9,19.9,24.7,28.1,28.1c1.5,0.6,5.3,1.3,9.5,1c4.1-0.3,8.2-1.5,10-5.3c0.9-1.9,0.9-3.9,0.5-5.7c-0.3-1.8-1.2-3.7-2.2-5.4
				C260.9,318,257.9,315.2,256.5,314.4z"/>
			<path class="st1" d="M298.1,267.7c3.2,4.2,6.1,11.1,7.2,17.7c1.3,7,0.9,13.6-3.7,17.9c-2.1,2.4-4.8,3.6-7.9,4.1
				c-3.1,0.5-6.6,0.3-9.9-0.1c-6.7-1-13.7-3.8-17.9-7c-6.6-4.9-12.6-12.7-17.3-21.9c-4.7-9.2-7.5-19.3-9.2-28.7c0,0-0.4-2.3-0.8-4.7
				c-0.4-2.4-0.7-4.7-0.7-4.7s2.3,0.2,4.7,0.6c2.3,0.4,4.7,0.8,4.7,0.8c9.4,1.6,19.8,4.5,28.8,8.8
				C285.2,255.2,293.1,261.1,298.1,267.7z M290,274.3c-5.7-6.5-17.5-13.6-35.8-17.7c4.4,18.3,11.6,29.9,18.1,35.5
				c2.5,2,14.3,8,19.7,1.9C298.1,288.4,292.1,276.8,290,274.3z"/>
			<path class="st5" d="M344,242.8c1.7,4.9,2.4,12.5,1.4,19.2c-1.2,6.5-3.3,13.2-9,15.8c-2.9,1.2-5.7,1.9-8.8,1.4
				c-3.1-0.4-6.3-1.6-9.4-3.2c-3.1-1.7-6.1-3.6-8.6-5.7c-2.6-2.1-4.8-4.4-6.3-6.5c-2.4-3.4-4.4-7.4-6.1-11.8c-0.8-2.2-1.6-4.6-2.2-7
				c-0.6-2.4-1.1-4.8-1.4-7.3c-1.5-10-1.2-20.8,0-30.3c0,0,0.3-2.4,0.7-4.6c0.4-2.3,0.8-4.6,0.8-4.6s2.1,1,4.3,2.1
				c2.1,1.1,4.2,2.1,4.2,2.1c8.4,4.3,17.3,10,24.7,17.4C335.7,226.9,341.3,235,344,242.8z M334.2,246.4c-3.4-8-12.4-18.2-28.5-27.7
				c-0.5,4.5-0.6,8.8-0.3,12.9c0.2,4,0.6,7.7,1.2,11c1.2,6.6,3.2,11.8,5.4,15.5c0.8,1.4,3.6,4.3,7.1,6.4c1.7,1,3.6,1.9,5.4,2.2
				c0.9,0.2,1.9,0.2,2.8,0c1-0.1,1.9-0.3,2.9-0.8C337.6,262.4,335.4,249.4,334.2,246.4z"/>
			<path class="st1" d="M395.3,233.3c0.1,5.2-1.6,12.7-4.7,18.8c-1.5,3.1-3.4,5.8-5.6,7.8c-2.2,2.3-4.8,3.9-7.9,4.4
				c-3.1,0.5-6.1-0.4-8.8-1.5c-2.8-1.2-5.4-3.3-7.9-5.8c-4.9-5-8.9-11.5-10.5-16.5c-2.5-7.9-2.7-17.6-1.1-27.6
				c0.8-5,2.1-10.1,3.7-15c1.6-4.9,3.5-9.8,5.6-13.8c0,0,1.1-2.1,2.1-4.1c1.1-2.1,2.2-4.1,2.2-4.1s1.7,1.6,3.4,3.3
				c1.7,1.6,3.3,3.3,3.3,3.3c3.3,3.3,6.6,7,9.7,11.1c3.1,4.2,6,8.7,8.3,13.2C392.3,215.7,395.2,225,395.3,233.3z M384.9,233.8
				c-0.4-4.3-2-9.8-4.9-15.7c-3-5.9-7.4-12.5-13.5-19.4c-3.6,8.4-5.7,16-6.6,22.8c-0.9,6.7-0.6,12.3,0.4,16.5
				c0.4,1.6,2.1,5.2,4.7,8.2c1.3,1.5,2.8,2.8,4.5,3.8c1.7,1,3.6,1.5,5.6,1.2c4.1-0.6,6.5-4.2,8-8.1
				C384.5,239.4,385,235.4,384.9,233.8z"/>
			<path class="st5" d="M447.2,240c-1.5,5-5.4,11.6-10.2,16.5c-2.4,2.5-5,4.6-7.8,5.8c-2.7,1.3-5.7,2.2-8.8,1.7
				c-1.6-0.2-3-0.8-4.3-1.5c-1.3-0.8-2.5-1.7-3.7-2.7c-2.3-2-4.2-4.8-5.7-7.9c-3.1-6.2-5-13.6-4.9-18.8c0.1-8.2,2.8-17.6,7.5-26.7
				c4.6-9,11.2-18.1,17.8-24.5c0,0,1.6-1.6,3.3-3.3c1.7-1.6,3.4-3.3,3.4-3.3s1.1,2.1,2.3,4.1c1.1,2.1,2.2,4.1,2.2,4.1
				c4.3,8.1,8,18.7,9.8,28.7C449.7,222.4,449.5,232.1,447.2,240z M437,237.4c1-4.2,1.1-9.8,0.2-16.6c-1-6.6-3.2-14.1-6.9-22.6
				c-6.1,7-10.3,13.4-13.3,19.6c-2.9,6.2-4.4,11.5-4.7,15.9c-0.2,3.3,2,15.7,10.1,17.2c4.1,0.7,7.5-2.2,10.1-5.2
				C434.9,242.6,436.6,239,437,237.4z"/>
			<path class="st1" d="M494.3,262.5c-1.5,2.2-3.7,4.5-6.2,6.6c-2.6,2.2-5.6,4.3-8.6,5.9c-3.1,1.6-6.2,2.9-9.3,3.2
				c-1.5,0.2-3,0.2-4.4-0.1c-1.5-0.1-3-0.5-4.4-1.2c-2.8-1.4-4.8-3.6-6.2-6.5c-1.5-2.7-2.5-5.8-3-9.2c-1.1-6.8-0.5-14.4,1.2-19.3
				c2.6-7.8,8.1-15.9,15.4-23.1c3.6-3.6,7.7-7,11.9-10.1c4.1-2.9,8.4-5.4,12.6-7.6c0,0,2.1-1.1,4.2-2.1c2.1-1,4.2-2.1,4.2-2.1
				s0.4,2.3,0.9,4.6c0.4,2.3,0.8,4.5,0.8,4.5c1.4,9.3,1.7,20.4,0.3,30.3c-0.7,5-1.8,9.8-3.4,14.2
				C498.6,255.1,496.6,259.1,494.3,262.5z M485.4,256.9c2.2-3.7,4.1-9,5.3-15.6c0.6-3.3,1-7,1.1-11.1c0.1-3.9-0.1-8.1-0.6-12.7
				c-15.9,9.6-24.7,19.9-28.1,28.1c-0.6,1.5-1.3,5.3-1,9.5c0.3,4.1,1.5,8.2,5.3,10c1.9,0.9,3.9,0.9,5.7,0.5c1.8-0.3,3.7-1.2,5.4-2.2
				C481.8,261.3,484.6,258.3,485.4,256.9z"/>
			<path class="st5" d="M532.1,298.6c-4.2,3.2-11.1,6.1-17.7,7.2c-7,1.3-13.6,0.9-17.9-3.7c-2.4-2.1-3.6-4.8-4.1-7.9
				c-0.5-3.1-0.3-6.6,0.1-9.9c1-6.7,3.8-13.7,7-17.9c4.9-6.6,12.7-12.6,21.9-17.3c9.2-4.7,19.3-7.5,28.7-9.2c0,0,2.3-0.4,4.7-0.8
				c2.4-0.4,4.7-0.7,4.7-0.7s-0.2,2.3-0.6,4.7c-0.4,2.3-0.8,4.7-0.8,4.7c-1.6,9.4-4.5,19.8-8.8,28.8
				C544.6,285.7,538.6,293.6,532.1,298.6z M525.5,290.5c6.5-5.7,13.6-17.6,17.7-35.8c-18.3,4.4-29.9,11.6-35.5,18.1
				c-2,2.5-8,14.3-1.9,19.7C511.4,298.5,523,292.6,525.5,290.5z"/>
			<path class="st1" d="M557,344.5c-4.9,1.7-12.5,2.4-19.2,1.4c-6.5-1.2-13.2-3.3-15.8-9c-1.2-2.9-1.9-5.7-1.4-8.8
				c0.4-3.1,1.6-6.3,3.2-9.4c1.7-3.1,3.6-6.1,5.7-8.6c2.1-2.6,4.4-4.8,6.5-6.3c3.4-2.4,7.4-4.4,11.8-6.1c2.2-0.8,4.6-1.6,7-2.2
				c2.4-0.6,4.8-1.1,7.3-1.4c9.9-1.5,20.8-1.2,30.3,0c0,0,2.4,0.3,4.6,0.7c2.3,0.4,4.6,0.8,4.6,0.8s-1,2.1-2.1,4.3
				c-1.1,2.1-2.1,4.2-2.1,4.2c-4.3,8.4-10,17.3-17.4,24.7C572.8,336.1,564.8,341.8,557,344.5z M553.4,334.7
				c8-3.4,18.2-12.4,27.7-28.5c-4.5-0.5-8.8-0.6-12.8-0.3c-4,0.2-7.7,0.6-11,1.2c-6.6,1.2-11.8,3.2-15.5,5.4
				c-1.4,0.8-4.3,3.7-6.4,7.1c-1,1.7-1.9,3.6-2.2,5.4c-0.2,0.9-0.2,1.9,0,2.8c0.1,1,0.3,1.9,0.8,2.9
				C537.3,338.1,550.4,335.9,553.4,334.7z"/>
			<path class="st5" d="M566.5,395.9c-5.2,0.1-12.6-1.6-18.8-4.7c-3.1-1.5-5.8-3.4-7.8-5.6c-2.3-2.2-3.9-4.8-4.4-7.9
				c-0.5-3.1,0.4-6.1,1.5-8.8c1.2-2.8,3.3-5.4,5.8-7.9c4.9-4.9,11.5-8.9,16.5-10.5c7.9-2.5,17.6-2.7,27.6-1.1c5,0.8,10.1,2.1,15,3.7
				c4.9,1.6,9.8,3.5,13.8,5.6c0,0,2.1,1.1,4.1,2.1c2.1,1.1,4.1,2.2,4.1,2.2s-1.6,1.7-3.3,3.4c-1.6,1.7-3.3,3.3-3.3,3.3
				c-3.3,3.3-7,6.6-11,9.7c-4.2,3.1-8.7,6-13.2,8.3C584.1,392.8,574.7,395.7,566.5,395.9z M566,385.4c4.3-0.4,9.8-2,15.7-4.9
				c5.9-3,12.5-7.4,19.4-13.5c-8.4-3.6-15.9-5.7-22.8-6.6c-6.7-0.9-12.3-0.6-16.5,0.4c-1.6,0.4-5.2,2.1-8.2,4.7
				c-1.5,1.3-2.8,2.8-3.8,4.5c-1,1.7-1.5,3.6-1.2,5.6c0.6,4.1,4.2,6.5,8.1,8C560.4,385,564.3,385.5,566,385.4z"/>
		</g>
		<g>
			<path id="XMLID_43_" class="st0" d="M249.2,401.2c0,0,1.5,2.2,3.9,4.3c2.4,2.1,5.6,4,9,3.8l-0.5-9.1h-11.8
				C249.5,400.7,249.2,401.2,249.2,401.2z"/>
			<path id="XMLID_42_" class="st0" d="M256.9,447.6c0,0,2.1,1.6,5,2.9c2.9,1.3,6.5,2.1,9.7,0.8c0,0-1.4-3.8-2.8-7.6
				c-0.3-1-0.8-1.9-1-2.8c-0.2-0.9-0.4-1.8-0.6-2.5c-0.4-1.5-0.6-2.5-0.6-2.5c-3.3,0.9-5.8,3.7-7.5,6.5c-0.9,1.4-1.4,2.7-1.7,3.7
				C257.1,447,256.9,447.6,256.9,447.6z"/>
			<path id="XMLID_41_" class="st0" d="M278.6,489.3c0,0,2.5,1,5.5,1.3c3.1,0.4,6.7,0.1,9.4-2.2c0,0-0.2-0.2-0.5-0.5
				c-0.3-0.4-0.6-0.9-1.1-1.5c-0.9-1.2-2.1-2.9-3.3-4.5c-1.2-1.6-2.5-3.2-3.4-4.5c-0.8-1.3-1.3-2.2-1.3-2.2c-2.8,1.8-4.6,5.5-5,8.4
				C278.4,486.7,278.6,489.3,278.6,489.3z"/>
			<path id="XMLID_40_" class="st0" d="M312.1,522.4c0,0,2.6,0.2,5.6-0.4c3.1-0.8,6.6-2.3,8.4-5.2c0,0-0.9-0.5-2.2-1.3
				c-1.4-0.7-2.9-2-4.6-3.2c-3.3-2.4-6.5-4.9-6.5-4.9c-2.2,2.7-2.5,6.3-2.1,9.4C311.2,519.9,312.1,522.4,312.1,522.4z"/>
			<path id="XMLID_39_" class="st0" d="M354.1,543.6c0,0,0.6-0.1,1.6-0.5c1-0.4,2.3-1,3.7-1.8c2.7-1.6,5.5-4.2,6.3-7.5
				c0,0-1-0.3-2.5-0.6c-1.5-0.4-3.5-0.8-5.4-1.4c-3.8-1.4-7.6-2.8-7.6-2.8c-1.2,3.2-0.4,6.8,0.9,9.7
				C352.4,541.5,354.1,543.6,354.1,543.6z"/>
			<path id="XMLID_38_" class="st0" d="M400.6,550.6c0,0,2.2-1.5,4.3-3.9c2.1-2.4,4-5.6,3.8-9c0,0-4.1,0.2-8.1,0.5
				c-2,0.1-4.1-0.2-5.6-0.2c-1.5-0.1-2.5-0.1-2.5-0.1c-0.2,3.4,1.7,6.7,3.9,9.1c1.1,1.2,2.1,2.2,3,2.9
				C400.1,550.4,400.6,550.6,400.6,550.6z"/>
			<path id="XMLID_37_" class="st0" d="M447.1,542.9c0,0,1.6-2.1,2.9-5c1.3-2.9,2.1-6.5,0.8-9.7c0,0-3.8,1.4-7.6,2.8
				c-1,0.3-1.9,0.8-2.8,1c-0.9,0.2-1.8,0.4-2.5,0.6c-1.5,0.4-2.5,0.6-2.5,0.6c0.9,3.3,3.7,5.8,6.5,7.5c1.4,0.9,2.7,1.4,3.7,1.7
				C446.4,542.8,447.1,542.9,447.1,542.9z"/>
			<path id="XMLID_36_" class="st0" d="M488.8,521.2c0,0,1-2.5,1.3-5.5c0.4-3.1,0.1-6.7-2.2-9.4c0,0-0.2,0.2-0.5,0.5
				c-0.4,0.3-0.9,0.6-1.5,1.1c-1.2,0.9-2.9,2.1-4.5,3.3c-1.6,1.2-3.2,2.5-4.5,3.4c-1.3,0.8-2.2,1.3-2.2,1.3c1.8,2.8,5.5,4.6,8.4,5
				C486.1,521.4,488.8,521.2,488.8,521.2z"/>
			<path id="XMLID_35_" class="st0" d="M521.9,487.7c0,0,0.2-2.6-0.4-5.6c-0.8-3.1-2.3-6.6-5.2-8.4c0,0-0.5,0.9-1.3,2.2
				c-0.7,1.4-2,2.9-3.2,4.6c-2.4,3.3-4.9,6.5-4.9,6.5c2.7,2.2,6.3,2.5,9.4,2.1C519.4,488.7,521.9,487.7,521.9,487.7z"/>
			<path id="XMLID_34_" class="st0" d="M543.1,445.8c0,0-0.1-0.6-0.5-1.6c-0.4-1-1-2.3-1.8-3.7c-1.6-2.7-4.1-5.5-7.5-6.4
				c0,0-0.3,1-0.6,2.5c-0.4,1.5-0.8,3.5-1.4,5.4c-1.4,3.8-2.8,7.6-2.8,7.6c3.2,1.2,6.8,0.4,9.7-0.9
				C540.9,447.4,543.1,445.8,543.1,445.8z"/>
			<path id="XMLID_33_" class="st0" d="M549.4,400.2h-11.8l-0.4,7.2C542.7,407.8,547.6,402.5,549.4,400.2z"/>
			<path id="XMLID_32_" class="st2" d="M566.4,418.8c-4.6-0.5-8.7,1.9-9.2,5.3c-0.5,3.4,2.7,6.9,7.2,7.8c4.5,0.9,8.6-1.5,9.2-5.3
				C574.2,422.8,570.9,419.3,566.4,418.8z"/>
			<path id="XMLID_31_" class="st2" d="M523.5,513.2c-3.4-3.1-8.1-3.5-10.3-1c-2.4,2.4-2,6.9,1.1,10.3c3.1,3.3,8,4.1,10.7,1.3
				C527.6,521.1,526.9,516.2,523.5,513.2z"/>
			<path id="XMLID_30_" class="st2" d="M433.5,564.6c-1-4.5-4.5-7.7-7.9-7.2c-3.4,0.5-5.7,4.6-5.2,9.2c0.5,4.6,4,7.8,7.9,7.2
				C432.1,573.2,434.5,569.1,433.5,564.6z"/>
			<path id="XMLID_29_" class="st2" d="M330.5,553c1.9-4.2,0.9-8.8-2.2-10.3c-3.1-1.4-7.4,0.6-9.6,4.5c-2.3,4.1-1.3,8.8,2.1,10.4
				C324.3,559.2,328.6,557.2,330.5,553z"/>
			<path id="XMLID_28_" class="st2" d="M253.9,483.1c4-2.3,5.6-6.5,4.2-9.6c-1.5-3.1-6.1-4-10.2-2.1c-4.2,1.9-6.2,6.3-4.5,9.8
				C244.9,484.7,250,485.4,253.9,483.1z"/>
			<path id="XMLID_27_" class="st0" d="M552.4,469.4c-4.2-1.9-8.8-0.9-10.3,2.2c-1.4,3.1,0.6,7.4,4.5,9.6c4.1,2.3,8.8,1.3,10.4-2.1
				C558.6,475.6,556.6,471.3,552.4,469.4z"/>
			<path id="XMLID_26_" class="st0" d="M482.5,546c-2.3-4-6.4-5.6-9.6-4.2c-3.1,1.5-4,6.1-2.1,10.2c1.9,4.2,6.3,6.2,9.8,4.5
				C484.1,555,484.8,549.9,482.5,546z"/>
			<path id="XMLID_25_" class="st0" d="M381,567c0.5-4.6-1.9-8.7-5.3-9.2c-3.4-0.5-6.9,2.7-7.8,7.2c-0.9,4.5,1.5,8.6,5.3,9.2
				C377.1,574.8,380.5,571.5,381,567z"/>
			<path id="XMLID_24_" class="st0" d="M286.7,524c3.1-3.4,3.5-8.1,1-10.4c-2.4-2.4-6.9-2-10.3,1.1c-3.3,3.1-4.1,8-1.3,10.7
				C278.8,528.1,283.6,527.5,286.7,524z"/>
			<path id="XMLID_23_" class="st0" d="M235.3,434c4.5-1,7.7-4.5,7.2-7.9c-0.5-3.4-4.6-5.7-9.2-5.2c-4.6,0.5-7.8,4.1-7.2,7.9
				C226.7,432.7,230.8,435,235.3,434z"/>
			<path class="st1" d="M559.8,447.7c-5-1.5-11.6-5.4-16.5-10.2c-2.5-2.4-4.6-5-5.8-7.8c-1.3-2.7-2.2-5.7-1.7-8.8
				c0.2-1.6,0.8-3,1.5-4.3c0.8-1.3,1.7-2.5,2.7-3.7c2-2.3,4.8-4.2,7.9-5.7c6.2-3.1,13.6-5,18.8-4.9c8.2,0.1,17.6,2.8,26.6,7.5
				c9,4.6,18.1,11.3,24.5,17.8c0,0,1.6,1.6,3.3,3.3c1.6,1.7,3.3,3.4,3.3,3.4s-2.1,1.1-4.1,2.3c-2.1,1.1-4.1,2.2-4.1,2.2
				c-8.1,4.3-18.6,8-28.6,9.8C577.4,450.2,567.7,450,559.8,447.7z M562.4,437.5c4.2,1,9.8,1.1,16.6,0.2c6.6-1,14.1-3.2,22.6-6.9
				c-7-6.1-13.4-10.4-19.6-13.3c-6.2-2.9-11.5-4.4-15.9-4.7c-3.3-0.2-15.7,2-17.2,10.1c-0.7,4.1,2.2,7.5,5.2,10.1
				C557.1,435.5,560.8,437.2,562.4,437.5z"/>
			<path class="st5" d="M537.3,494.8c-2.2-1.5-4.4-3.7-6.6-6.2c-2.2-2.6-4.3-5.6-5.9-8.6c-1.6-3.1-2.9-6.2-3.2-9.3
				c-0.2-1.5-0.2-3,0.1-4.4c0.1-1.5,0.5-3,1.2-4.4c1.4-2.8,3.6-4.8,6.5-6.2c2.7-1.5,5.8-2.5,9.2-3c6.8-1.1,14.4-0.5,19.3,1.2
				c7.8,2.6,15.9,8.1,23.1,15.4c3.6,3.6,7,7.7,10.1,11.9c2.9,4.1,5.4,8.4,7.6,12.6c0,0,1.1,2.1,2.1,4.2c1,2.1,2.1,4.2,2.1,4.2
				s-2.3,0.4-4.6,0.9c-2.3,0.4-4.5,0.8-4.5,0.8c-9.3,1.4-20.4,1.7-30.3,0.3c-5-0.7-9.8-1.8-14.2-3.4
				C544.7,499.2,540.7,497.2,537.3,494.8z M542.8,485.9c3.7,2.2,9,4.1,15.6,5.3c3.3,0.6,7,1,11.1,1.1c3.9,0.1,8.1-0.1,12.7-0.6
				c-9.6-15.9-19.9-24.7-28.1-28.1c-1.5-0.6-5.3-1.3-9.5-1c-4.1,0.3-8.2,1.5-10,5.3c-0.9,1.9-0.9,3.9-0.5,5.7
				c0.3,1.8,1.2,3.7,2.2,5.4C538.5,482.3,541.4,485.1,542.8,485.9z"/>
			<path class="st1" d="M501.2,532.7c-3.2-4.2-6.1-11.1-7.2-17.7c-1.3-7-0.9-13.6,3.7-17.9c2.1-2.4,4.8-3.6,7.9-4.1
				c3.1-0.5,6.6-0.3,9.9,0.1c6.7,1,13.7,3.8,17.9,7c6.6,4.9,12.6,12.7,17.3,21.9c4.7,9.2,7.5,19.3,9.2,28.7c0,0,0.4,2.3,0.8,4.7
				c0.4,2.4,0.7,4.7,0.7,4.7s-2.3-0.2-4.7-0.6c-2.3-0.4-4.7-0.8-4.7-0.8c-9.4-1.6-19.8-4.5-28.8-8.8
				C514.1,545.2,506.2,539.2,501.2,532.7z M509.3,526c5.7,6.5,17.5,13.6,35.8,17.7c-4.4-18.3-11.6-29.9-18.1-35.5
				c-2.5-2-14.3-8-19.7-1.9C501.3,512,507.2,523.5,509.3,526z"/>
			<path class="st5" d="M455.3,557.6c-1.7-4.9-2.4-12.5-1.4-19.2c1.2-6.5,3.3-13.2,9-15.8c2.9-1.2,5.7-1.9,8.8-1.4
				c3.1,0.4,6.3,1.6,9.4,3.2c3.1,1.7,6.1,3.6,8.6,5.7c2.6,2.1,4.8,4.4,6.3,6.5c2.4,3.4,4.4,7.4,6.1,11.8c0.8,2.2,1.6,4.6,2.2,7
				c0.6,2.4,1.1,4.8,1.4,7.3c1.5,10,1.2,20.8,0,30.3c0,0-0.3,2.4-0.7,4.6c-0.4,2.3-0.8,4.6-0.8,4.6s-2.1-1-4.3-2.1
				c-2.1-1.1-4.2-2.1-4.2-2.1c-8.4-4.3-17.3-10-24.7-17.4C463.7,573.4,458.1,565.4,455.3,557.6z M465.1,553.9
				c3.4,8,12.4,18.2,28.5,27.7c0.5-4.5,0.6-8.8,0.3-12.9c-0.2-4-0.6-7.7-1.2-11c-1.2-6.6-3.2-11.8-5.4-15.5
				c-0.8-1.4-3.6-4.3-7.1-6.4c-1.7-1-3.6-1.9-5.4-2.2c-0.9-0.2-1.9-0.2-2.8,0c-1,0.1-1.9,0.3-2.9,0.8
				C461.7,537.9,464,550.9,465.1,553.9z"/>
			<path class="st1" d="M404,567.1c-0.1-5.2,1.6-12.7,4.7-18.8c1.5-3.1,3.4-5.8,5.6-7.8c2.2-2.3,4.8-3.9,7.9-4.4
				c3.1-0.5,6.1,0.4,8.8,1.5c2.8,1.2,5.4,3.3,7.9,5.8c4.9,5,8.9,11.5,10.5,16.5c2.5,7.9,2.7,17.6,1.1,27.6c-0.8,5-2.1,10.1-3.7,15
				c-1.6,4.9-3.5,9.8-5.6,13.8c0,0-1.1,2.1-2.1,4.1c-1.1,2.1-2.2,4.1-2.2,4.1s-1.7-1.6-3.4-3.3c-1.7-1.6-3.3-3.3-3.3-3.3
				c-3.3-3.3-6.6-7-9.7-11.1c-3.1-4.2-6-8.7-8.3-13.2C407,584.7,404.2,575.3,404,567.1z M414.5,566.5c0.4,4.3,2,9.8,4.9,15.7
				c3,5.9,7.4,12.5,13.5,19.4c3.6-8.4,5.7-16,6.6-22.8c0.9-6.7,0.6-12.3-0.4-16.5c-0.4-1.6-2.1-5.2-4.7-8.2
				c-1.3-1.5-2.8-2.8-4.5-3.8c-1.7-1-3.6-1.5-5.6-1.2c-4.1,0.6-6.5,4.2-8,8.1C414.8,561,414.3,564.9,414.5,566.5z"/>
			<path class="st5" d="M352.2,560.3c1.5-5,5.4-11.6,10.2-16.5c2.4-2.5,5-4.6,7.8-5.8c2.7-1.3,5.7-2.2,8.8-1.7
				c1.6,0.2,3,0.8,4.3,1.5c1.3,0.8,2.5,1.7,3.7,2.7c2.3,2,4.2,4.8,5.7,7.9c3.1,6.2,5,13.6,4.9,18.8c-0.1,8.2-2.8,17.6-7.5,26.7
				c-4.6,9-11.2,18.1-17.8,24.5c0,0-1.6,1.6-3.3,3.3c-1.7,1.6-3.4,3.3-3.4,3.3s-1.1-2.1-2.3-4.1c-1.1-2.1-2.2-4.1-2.2-4.1
				c-4.3-8.1-8-18.7-9.8-28.7C349.7,578,349.8,568.2,352.2,560.3z M362.3,562.9c-1,4.2-1.1,9.8-0.2,16.6c1,6.6,3.2,14.1,6.9,22.6
				c6.1-7,10.3-13.4,13.3-19.6c2.9-6.2,4.4-11.5,4.7-15.9c0.2-3.3-2-15.7-10.1-17.2c-4.1-0.7-7.5,2.2-10.1,5.2
				C364.4,557.7,362.7,561.4,362.3,562.9z"/>
			<path class="st1" d="M305,537.8c1.5-2.2,3.7-4.5,6.2-6.6c2.6-2.2,5.6-4.3,8.6-5.9c3.1-1.6,6.2-2.9,9.3-3.2c1.5-0.2,3-0.2,4.4,0.1
				c1.5,0.1,3,0.5,4.4,1.2c2.8,1.4,4.8,3.6,6.2,6.5c1.5,2.7,2.5,5.8,3,9.2c1.1,6.8,0.5,14.4-1.2,19.3c-2.6,7.8-8.1,15.9-15.4,23.1
				c-3.6,3.6-7.7,7-11.9,10.1c-4.1,2.9-8.4,5.4-12.6,7.6c0,0-2.1,1.1-4.2,2.1c-2.1,1-4.2,2.1-4.2,2.1s-0.4-2.3-0.9-4.6
				c-0.4-2.3-0.8-4.5-0.8-4.5c-1.4-9.3-1.7-20.4-0.3-30.3c0.7-5,1.8-9.8,3.4-14.2C300.7,545.3,302.7,541.2,305,537.8z M313.9,543.4
				c-2.2,3.7-4.1,9-5.3,15.6c-0.6,3.3-1,7-1.1,11.1c-0.1,3.9,0.1,8.1,0.6,12.7c15.9-9.6,24.7-19.9,28.1-28.1c0.6-1.5,1.3-5.3,1-9.5
				c-0.3-4.1-1.5-8.2-5.3-10c-1.9-0.9-3.9-0.9-5.7-0.5c-1.8,0.3-3.7,1.2-5.4,2.2C317.5,539,314.8,542,313.9,543.4z"/>
			<path class="st5" d="M267.2,501.7c4.2-3.2,11.1-6.1,17.7-7.2c7-1.3,13.6-0.9,17.9,3.7c2.4,2.1,3.6,4.8,4.1,7.9
				c0.5,3.1,0.3,6.6-0.1,9.9c-1,6.7-3.8,13.7-7,17.9c-4.9,6.6-12.7,12.6-21.9,17.3c-9.2,4.7-19.3,7.5-28.7,9.2c0,0-2.3,0.4-4.7,0.8
				c-2.4,0.4-4.7,0.7-4.7,0.7s0.2-2.3,0.6-4.7c0.4-2.3,0.8-4.7,0.8-4.7c1.6-9.4,4.5-19.8,8.8-28.8
				C254.7,514.6,260.7,506.7,267.2,501.7z M273.9,509.9c-6.5,5.7-13.6,17.6-17.7,35.8c18.3-4.4,29.9-11.6,35.5-18.1
				c2-2.5,8-14.3,1.9-19.7C287.9,501.8,276.4,507.8,273.9,509.9z"/>
			<path class="st1" d="M242.3,455.8c4.9-1.7,12.5-2.4,19.2-1.4c6.5,1.2,13.2,3.3,15.8,9c1.2,2.9,1.9,5.7,1.4,8.8
				c-0.4,3.1-1.6,6.3-3.2,9.4c-1.7,3.1-3.6,6.1-5.7,8.6c-2.1,2.6-4.4,4.8-6.5,6.3c-3.4,2.4-7.4,4.4-11.8,6.1c-2.2,0.8-4.6,1.6-7,2.2
				c-2.4,0.6-4.8,1.1-7.3,1.4c-9.9,1.5-20.8,1.2-30.3,0c0,0-2.4-0.3-4.6-0.7c-2.3-0.4-4.6-0.8-4.6-0.8s1-2.1,2.1-4.3
				c1.1-2.1,2.1-4.2,2.1-4.2c4.3-8.4,10-17.3,17.4-24.7C226.5,464.2,234.5,458.6,242.3,455.8z M246,465.7
				c-8,3.4-18.2,12.4-27.7,28.5c4.5,0.5,8.8,0.6,12.8,0.3c4-0.2,7.7-0.6,11-1.2c6.6-1.2,11.8-3.2,15.5-5.4c1.4-0.8,4.3-3.7,6.4-7.1
				c1-1.7,1.9-3.6,2.2-5.4c0.2-0.9,0.2-1.9,0-2.8c-0.1-1-0.3-1.9-0.8-2.9C262,462.3,248.9,464.5,246,465.7z"/>
			<path class="st5" d="M232.8,404.5c5.2-0.1,12.6,1.6,18.8,4.7c3.1,1.5,5.8,3.4,7.8,5.6c2.3,2.2,3.9,4.8,4.4,7.9
				c0.5,3.1-0.4,6.1-1.5,8.8c-1.2,2.8-3.3,5.4-5.8,7.9c-4.9,4.9-11.5,8.9-16.5,10.5c-7.9,2.5-17.6,2.7-27.6,1.1
				c-5-0.8-10.1-2.1-15-3.7c-4.9-1.6-9.8-3.5-13.8-5.6c0,0-2.1-1.1-4.1-2.1c-2.1-1.1-4.1-2.2-4.1-2.2s1.6-1.7,3.3-3.4
				c1.6-1.7,3.3-3.3,3.3-3.3c3.3-3.3,7-6.6,11-9.7c4.2-3.1,8.7-6,13.2-8.3C215.3,407.5,224.6,404.7,232.8,404.5z M233.4,415
				c-4.3,0.4-9.8,2-15.7,4.9c-5.9,3-12.5,7.4-19.4,13.5c8.4,3.6,15.9,5.7,22.8,6.6c6.7,0.9,12.3,0.6,16.5-0.4
				c1.6-0.4,5.2-2.1,8.2-4.7c1.5-1.3,2.8-2.8,3.8-4.5c1-1.7,1.5-3.6,1.2-5.6c-0.6-4.1-4.2-6.5-8.1-8
				C238.9,415.3,235,414.8,233.4,415z"/>
		</g>
	</g>
	<path class="st0" d="M399.7,343.8c-31.1,0-56.3,25.2-56.3,56.4c0,31.1,25.2,56.4,56.3,56.4s56.3-25.2,56.3-56.4
		C456,369,430.8,343.8,399.7,343.8z M399.7,448c-26.4,0-47.8-21.4-47.8-47.8c0-26.4,21.4-47.8,47.8-47.8c26.4,0,47.8,21.4,47.8,47.8
		C447.5,426.6,426.1,448,399.7,448z"/>
</g>
</svg>
